<svg width="621" height="626" viewBox="0 0 621 626" fill="none" xmlns="http://www.w3.org/2000/svg">
<g filter="url(#filter0_d_202_3)">
<ellipse cx="310.5" cy="309" rx="290.5" ry="293" fill="#FEF2F4"/>
</g>
<g filter="url(#filter1_d_202_3)">
<path d="M295.406 388.953H299.719C301.812 389.172 302.859 389.812 302.859 390.875C302.859 391.562 302.094 391.906 300.562 391.906L297.516 391.719L293.109 391.766L283.547 403.906C277.078 411.969 273.5 416 272.812 416C272.219 416 271.672 415.547 271.172 414.641C270.703 413.859 270.469 413.141 270.469 412.484C270.469 411.516 275.781 404.609 286.406 391.766H282.75C277.656 391.797 270.078 392.094 260.016 392.656L244.172 406.156L238.031 411.641C234.719 414.516 232.703 415.953 231.984 415.953C231.109 415.953 230.672 415.5 230.672 414.594C230.672 413.469 235.188 409.156 244.219 401.656L254.953 392.75C240.609 393.406 233.203 394.109 232.734 394.859V394.906C232.734 395.5 234.969 395.797 239.438 395.797L245.719 395.703C246.562 395.672 246.984 395.859 246.984 396.266C246.984 397.141 243.578 397.578 236.766 397.578C230.953 397.578 228.047 396.844 228.047 395.375C228.047 393.5 229.766 392.219 233.203 391.531C234.172 391.312 236.578 391.078 240.422 390.828L258.703 389.609C266.078 383.516 276.625 375.609 290.344 365.891C307.812 353.547 318.234 347.375 321.609 347.375C323.297 347.375 324.141 348.469 324.141 350.656C324.141 352.5 321.938 356.156 317.531 361.625L295.406 388.953ZM288.703 388.953L310.688 362.281L314.766 357.312C316.516 355.094 317.672 353.391 318.234 352.203V352.016C318.234 351.672 318.078 351.5 317.766 351.5C316.297 351.5 307.016 357.75 289.922 370.25L264.188 389.375L288.703 388.953ZM308.25 402.922L298.453 410.609C293.391 414.203 289.531 416 286.875 416C286.5 416 286.312 415.812 286.312 415.438C286.312 414.875 286.688 414.516 287.438 414.359C290.344 413.797 294.281 411.625 299.25 407.844L312.281 397.438C319.406 391.594 324.891 388.672 328.734 388.672C330.766 388.672 331.781 389.453 331.781 391.016C332.469 391.016 332.812 391.328 332.812 391.953C332.812 392.484 332.422 392.766 331.641 392.797C331.016 395.016 329.844 397.219 328.125 399.406C326.062 402.031 324.078 403.344 322.172 403.344C321.047 403.344 320.484 402.828 320.484 401.797C320.484 400.328 321.703 398.422 324.141 396.078C326.297 393.984 328.234 392.578 329.953 391.859L330.047 391.344C330.047 390.906 329.828 390.688 329.391 390.688C327.359 390.688 323.625 393.484 318.188 399.078C312.781 404.672 310.078 408.578 310.078 410.797C310.078 412.203 310.672 413.188 311.859 413.75C312.453 414.031 313.562 414.25 315.188 414.406C316.375 414.531 316.969 414.797 316.969 415.203C316.969 415.828 315.875 416.141 313.688 416.141C308.812 416.141 306.375 413.922 306.375 409.484C306.375 407.797 307 405.609 308.25 402.922ZM329.156 393.922C328.25 394.328 326.969 395.359 325.312 397.016C323.531 398.766 322.641 399.984 322.641 400.672L323.016 401.047C323.859 401.047 325.031 400.078 326.531 398.141C327.812 396.484 328.688 395.078 329.156 393.922ZM337.688 402.922L327.891 410.609C322.828 414.203 318.969 416 316.312 416C315.938 416 315.75 415.812 315.75 415.438C315.75 414.875 316.125 414.516 316.875 414.359C319.781 413.797 323.719 411.625 328.688 407.844L341.719 397.438C348.844 391.594 354.328 388.672 358.172 388.672C360.203 388.672 361.219 389.453 361.219 391.016C361.906 391.016 362.25 391.328 362.25 391.953C362.25 392.484 361.859 392.766 361.078 392.797C360.453 395.016 359.281 397.219 357.562 399.406C355.5 402.031 353.516 403.344 351.609 403.344C350.484 403.344 349.922 402.828 349.922 401.797C349.922 400.328 351.141 398.422 353.578 396.078C355.734 393.984 357.672 392.578 359.391 391.859L359.484 391.344C359.484 390.906 359.266 390.688 358.828 390.688C356.797 390.688 353.062 393.484 347.625 399.078C342.219 404.672 339.516 408.578 339.516 410.797C339.516 412.203 340.109 413.188 341.297 413.75C341.891 414.031 343 414.25 344.625 414.406C345.812 414.531 346.406 414.797 346.406 415.203C346.406 415.828 345.312 416.141 343.125 416.141C338.25 416.141 335.812 413.922 335.812 409.484C335.812 407.797 336.438 405.609 337.688 402.922ZM358.594 393.922C357.688 394.328 356.406 395.359 354.75 397.016C352.969 398.766 352.078 399.984 352.078 400.672L352.453 401.047C353.297 401.047 354.469 400.078 355.969 398.141C357.25 396.484 358.125 395.078 358.594 393.922ZM363.234 408.406C361.672 408.781 358.734 410.219 354.422 412.719C350.609 414.906 347.719 416 345.75 416C345.375 416 345.188 415.797 345.188 415.391C345.188 414.828 345.594 414.484 346.406 414.359C348.312 414.047 351 412.875 354.469 410.844C358.281 408.656 361.391 407.281 363.797 406.719C365.234 403.25 368.203 399.609 372.703 395.797C377.484 391.703 381.562 389.656 384.938 389.656C387.438 389.656 388.688 390.719 388.688 392.844C388.688 395.625 386.047 398.656 380.766 401.938C376.891 404.375 372.922 406.281 368.859 407.656C368.422 408.656 368.203 409.703 368.203 410.797C368.203 412.422 368.766 413.484 369.891 413.984C370.453 414.203 371.516 414.344 373.078 414.406C374.203 414.438 374.766 414.703 374.766 415.203C374.766 415.984 372.844 416.375 369 416.375C364.938 416.375 362.906 414.609 362.906 411.078C362.906 410.266 363.016 409.375 363.234 408.406ZM369.422 405.781C372.297 404.375 375.328 402.469 378.516 400.062C382.766 396.906 384.891 394.406 384.891 392.562C384.891 391.812 384.547 391.438 383.859 391.438C381.828 391.438 379.062 393.312 375.562 397.062C372.438 400.469 370.391 403.375 369.422 405.781ZM388.875 407.984C382.375 413.328 377.438 416 374.062 416C373.688 416 373.5 415.812 373.5 415.438C373.5 414.875 373.812 414.516 374.438 414.359C375.594 414.078 377.375 413.453 379.781 412.484C382.031 411.266 387.75 406.828 396.938 399.172C405.656 391.922 410.125 388.297 410.344 388.297C411.062 388.297 411.766 388.609 412.453 389.234C413.172 389.859 413.531 390.531 413.531 391.25C413.531 393.531 411.75 397.547 408.188 403.297C405.094 408.266 402.391 411.984 400.078 414.453C401.422 414.453 402.094 414.703 402.094 415.203C402.094 415.828 401.438 416.141 400.125 416.141C399.781 416.141 399.266 416.078 398.578 415.953C397.922 415.828 397.422 415.766 397.078 415.766C396.828 415.766 396.453 415.812 395.953 415.906C395.453 416 395.078 416.047 394.828 416.047C390.859 416.047 388.875 413.359 388.875 407.984ZM396.328 412.062C398.516 410.25 400.922 407.125 403.547 402.688C405.984 398.562 407.688 394.922 408.656 391.766L391.875 405.406C393.031 405.594 394 406.5 394.781 408.125L396.328 412.062ZM394.969 413.516L393.656 409.812C392.969 408 392.297 407.094 391.641 407.094C390.953 407.094 390.609 407.625 390.609 408.688C390.609 409.75 390.922 410.844 391.547 411.969C392.266 413.25 393.109 413.891 394.078 413.891C394.453 413.891 394.75 413.766 394.969 413.516ZM416.25 407.984C409.75 413.328 404.812 416 401.438 416C401.062 416 400.875 415.812 400.875 415.438C400.875 414.875 401.188 414.516 401.812 414.359C402.969 414.078 404.75 413.453 407.156 412.484C409.406 411.266 415.125 406.828 424.312 399.172C433.031 391.922 437.5 388.297 437.719 388.297C438.438 388.297 439.141 388.609 439.828 389.234C440.547 389.859 440.906 390.531 440.906 391.25C440.906 393.531 439.125 397.547 435.562 403.297C432.469 408.266 429.766 411.984 427.453 414.453C428.797 414.453 429.469 414.703 429.469 415.203C429.469 415.828 428.812 416.141 427.5 416.141C427.156 416.141 426.641 416.078 425.953 415.953C425.297 415.828 424.797 415.766 424.453 415.766C424.203 415.766 423.828 415.812 423.328 415.906C422.828 416 422.453 416.047 422.203 416.047C418.234 416.047 416.25 413.359 416.25 407.984ZM423.703 412.062C425.891 410.25 428.297 407.125 430.922 402.688C433.359 398.562 435.062 394.922 436.031 391.766L419.25 405.406C420.406 405.594 421.375 406.5 422.156 408.125L423.703 412.062ZM422.344 413.516L421.031 409.812C420.344 408 419.672 407.094 419.016 407.094C418.328 407.094 417.984 407.625 417.984 408.688C417.984 409.75 418.297 410.844 418.922 411.969C419.641 413.25 420.484 413.891 421.453 413.891C421.828 413.891 422.125 413.766 422.344 413.516Z" fill="#D14D72"/>
<path d="M295.406 388.953L294.074 387.875C293.658 388.388 293.575 389.095 293.859 389.691C294.144 390.287 294.746 390.667 295.406 390.667V388.953ZM299.719 388.953L299.897 387.248C299.838 387.242 299.778 387.239 299.719 387.239V388.953ZM300.562 391.906L300.457 393.617C300.492 393.619 300.527 393.62 300.562 393.62V391.906ZM297.516 391.719L297.621 390.008C297.58 390.005 297.539 390.004 297.497 390.005L297.516 391.719ZM293.109 391.766L293.091 390.052C292.572 390.057 292.084 390.297 291.763 390.705L293.109 391.766ZM283.547 403.906L284.884 404.979C284.887 404.975 284.89 404.971 284.893 404.967L283.547 403.906ZM271.172 414.641L272.673 413.813C272.663 413.794 272.652 413.777 272.642 413.759L271.172 414.641ZM286.406 391.766L287.727 392.858C288.15 392.347 288.24 391.637 287.957 391.036C287.674 390.435 287.07 390.052 286.406 390.052V391.766ZM282.75 391.766V390.052L282.739 390.052L282.75 391.766ZM260.016 392.656L259.92 390.945C259.546 390.966 259.189 391.109 258.904 391.352L260.016 392.656ZM244.172 406.156L243.06 404.852C243.05 404.86 243.04 404.869 243.03 404.878L244.172 406.156ZM238.031 411.641L239.155 412.935C239.161 412.93 239.167 412.924 239.173 412.919L238.031 411.641ZM244.219 401.656L243.124 400.337L243.124 400.338L244.219 401.656ZM254.953 392.75L256.048 394.069C256.615 393.599 256.817 392.819 256.552 392.132C256.286 391.444 255.611 391.004 254.875 391.038L254.953 392.75ZM232.734 394.859L231.281 393.951C231.111 394.223 231.02 394.538 231.02 394.859H232.734ZM239.438 395.797V397.511C239.446 397.511 239.455 397.511 239.463 397.511L239.438 395.797ZM245.719 395.703L245.744 397.417C245.757 397.417 245.77 397.416 245.782 397.416L245.719 395.703ZM233.203 391.531L233.539 393.212C233.553 393.209 233.567 393.206 233.581 393.203L233.203 391.531ZM240.422 390.828L240.533 392.539L240.536 392.538L240.422 390.828ZM258.703 389.609L258.817 391.32C259.176 391.296 259.518 391.16 259.795 390.931L258.703 389.609ZM290.344 365.891L289.355 364.491L289.353 364.492L290.344 365.891ZM317.531 361.625L318.863 362.704L318.866 362.7L317.531 361.625ZM288.703 388.953L288.733 390.667C289.234 390.658 289.707 390.43 290.026 390.043L288.703 388.953ZM310.688 362.281L312.01 363.371L312.012 363.369L310.688 362.281ZM314.766 357.312L316.091 358.4C316.098 358.391 316.105 358.383 316.111 358.374L314.766 357.312ZM318.234 352.203L319.783 352.937C319.892 352.708 319.948 352.457 319.948 352.203H318.234ZM289.922 370.25L288.91 368.866L288.899 368.874L289.922 370.25ZM264.188 389.375L263.165 387.999C262.568 388.443 262.325 389.223 262.565 389.927C262.805 390.632 263.473 391.102 264.217 391.089L264.188 389.375ZM295.406 390.667H299.719V387.239H295.406V390.667ZM299.541 390.658C300.49 390.757 300.977 390.936 301.18 391.06C301.263 391.11 301.242 391.119 301.203 391.055C301.157 390.981 301.145 390.905 301.145 390.875H304.573C304.573 389.645 303.908 388.71 302.969 388.136C302.124 387.619 301.041 387.368 299.897 387.248L299.541 390.658ZM301.145 390.875C301.145 390.706 301.2 390.492 301.34 390.304C301.401 390.221 301.464 390.165 301.509 390.131C301.554 390.098 301.583 390.085 301.583 390.085C301.584 390.085 301.563 390.094 301.516 390.106C301.47 390.119 301.403 390.133 301.314 390.147C301.132 390.174 300.885 390.192 300.562 390.192V393.62C301.403 393.62 302.27 393.534 302.987 393.212C303.366 393.042 303.776 392.773 304.092 392.348C304.423 391.902 304.573 391.387 304.573 390.875H301.145ZM300.668 390.195L297.621 390.008L297.41 393.43L300.457 393.617L300.668 390.195ZM297.497 390.005L293.091 390.052L293.128 393.48L297.534 393.433L297.497 390.005ZM291.763 390.705L282.2 402.846L284.893 404.967L294.456 392.826L291.763 390.705ZM282.21 402.834C278.98 406.859 276.49 409.856 274.73 411.839C273.846 412.835 273.171 413.546 272.693 413.998C272.45 414.228 272.293 414.356 272.209 414.417C272.166 414.447 272.178 414.434 272.233 414.408C272.26 414.395 272.479 414.286 272.812 414.286V417.714C273.232 417.714 273.56 417.573 273.718 417.498C273.904 417.408 274.069 417.301 274.202 417.206C274.471 417.014 274.757 416.764 275.047 416.49C275.635 415.934 276.388 415.134 277.294 414.114C279.112 412.066 281.645 409.016 284.884 404.979L282.21 402.834ZM272.812 414.286C272.888 414.286 272.957 414.302 273.009 414.322C273.057 414.341 273.07 414.357 273.051 414.34C273 414.298 272.862 414.156 272.673 413.813L269.671 415.469C270.243 416.505 271.232 417.714 272.812 417.714V414.286ZM272.642 413.759C272.273 413.145 272.183 412.732 272.183 412.484H268.755C268.755 413.549 269.133 414.574 269.702 415.522L272.642 413.759ZM272.183 412.484C272.183 412.75 272.108 412.907 272.129 412.853C272.135 412.838 272.161 412.778 272.225 412.659C272.353 412.423 272.567 412.076 272.886 411.603C273.52 410.663 274.491 409.341 275.812 407.623C278.449 404.195 282.418 399.276 287.727 392.858L285.086 390.673C279.77 397.099 275.77 402.055 273.095 405.533C271.759 407.269 270.738 408.657 270.044 409.686C269.699 410.197 269.415 410.649 269.21 411.027C269.109 411.214 269.01 411.414 268.933 411.613C268.871 411.773 268.755 412.098 268.755 412.484H272.183ZM286.406 390.052H282.75V393.48H286.406V390.052ZM282.739 390.052C277.602 390.083 269.989 390.382 259.92 390.945L260.111 394.368C270.167 393.805 277.711 393.511 282.761 393.48L282.739 390.052ZM258.904 391.352L243.06 404.852L245.284 407.461L261.127 393.961L258.904 391.352ZM243.03 404.878L236.89 410.362L239.173 412.919L245.314 407.435L243.03 404.878ZM236.908 410.346C235.267 411.771 233.982 412.808 233.04 413.48C232.566 413.817 232.214 414.038 231.969 414.166C231.652 414.333 231.713 414.239 231.984 414.239V417.667C232.615 417.667 233.197 417.394 233.564 417.201C234.003 416.97 234.496 416.651 235.03 416.27C236.104 415.505 237.483 414.386 239.155 412.935L236.908 410.346ZM231.984 414.239C231.909 414.239 231.914 414.229 231.969 414.248C232.034 414.27 232.136 414.323 232.233 414.423C232.436 414.633 232.386 414.797 232.386 414.594H228.958C228.958 415.296 229.127 416.141 229.767 416.804C230.418 417.478 231.267 417.667 231.984 417.667V414.239ZM232.386 414.594C232.386 414.935 232.25 415.08 232.361 414.891C232.437 414.762 232.584 414.552 232.837 414.247C233.339 413.643 234.131 412.817 235.242 411.755C237.457 409.64 240.807 406.717 245.314 402.975L243.124 400.338C238.599 404.095 235.176 407.078 232.875 409.276C231.728 410.371 230.827 411.303 230.2 412.057C229.889 412.432 229.613 412.802 229.406 413.154C229.234 413.446 228.958 413.971 228.958 414.594H232.386ZM245.313 402.975L256.048 394.069L253.859 391.431L243.124 400.337L245.313 402.975ZM254.875 391.038C247.696 391.366 242.224 391.708 238.479 392.063C236.612 392.24 235.135 392.425 234.076 392.62C233.552 392.717 233.078 392.825 232.691 392.955C232.499 393.02 232.28 393.105 232.069 393.222C231.893 393.32 231.538 393.54 231.281 393.951L234.188 395.768C233.989 396.085 233.747 396.212 233.738 396.217C233.694 396.241 233.697 396.233 233.78 396.205C233.944 396.151 234.237 396.076 234.698 395.991C235.608 395.823 236.966 395.65 238.803 395.476C242.463 395.128 247.867 394.79 255.031 394.462L254.875 391.038ZM231.02 394.859V394.906H234.448V394.859H231.02ZM231.02 394.906C231.02 395.583 231.358 396.079 231.672 396.37C231.96 396.638 232.283 396.794 232.519 396.888C232.998 397.079 233.585 397.194 234.184 397.273C235.418 397.437 237.186 397.511 239.438 397.511V394.083C237.221 394.083 235.637 394.008 234.636 393.875C234.118 393.806 233.867 393.735 233.788 393.704C233.745 393.686 233.858 393.722 234.006 393.86C234.18 394.021 234.448 394.378 234.448 394.906H231.02ZM239.463 397.511L245.744 397.417L245.693 393.989L239.412 394.083L239.463 397.511ZM245.782 397.416C245.929 397.411 246.019 397.416 246.062 397.422C246.112 397.428 246.067 397.429 245.972 397.387C245.871 397.342 245.675 397.23 245.508 396.995C245.331 396.746 245.27 396.477 245.27 396.266H248.698C248.698 395.851 248.585 395.407 248.302 395.009C248.03 394.626 247.676 394.393 247.364 394.254C246.791 393.999 246.156 393.972 245.655 393.99L245.782 397.416ZM245.27 396.266C245.27 395.75 245.542 395.422 245.679 395.299C245.792 395.197 245.849 395.194 245.729 395.24C245.499 395.329 245.024 395.446 244.211 395.55C242.621 395.754 240.155 395.864 236.766 395.864V399.292C240.189 399.292 242.833 399.183 244.648 398.95C245.539 398.836 246.341 398.679 246.962 398.439C247.268 398.321 247.644 398.141 247.971 397.848C248.321 397.533 248.698 397 248.698 396.266H245.27ZM236.766 395.864C233.895 395.864 231.888 395.679 230.646 395.366C230.017 395.207 229.727 395.048 229.627 394.973C229.577 394.935 229.761 395.077 229.761 395.375H226.333C226.333 396.408 226.88 397.192 227.556 397.705C228.184 398.18 228.983 398.481 229.807 398.689C231.472 399.11 233.824 399.292 236.766 399.292V395.864ZM229.761 395.375C229.761 395.062 229.864 394.752 230.36 394.382C230.926 393.96 231.93 393.534 233.539 393.212L232.867 389.851C231.038 390.216 229.464 390.774 228.312 391.634C227.089 392.545 226.333 393.813 226.333 395.375H229.761ZM233.581 393.203C234.389 393.021 236.642 392.792 240.533 392.539L240.311 389.118C236.515 389.365 233.955 389.604 232.826 389.859L233.581 393.203ZM240.536 392.538L258.817 391.32L258.589 387.899L240.308 389.118L240.536 392.538ZM259.795 390.931C267.122 384.877 277.629 376.999 291.335 367.289L289.353 364.492C275.621 374.22 265.035 382.155 257.611 388.288L259.795 390.931ZM291.333 367.29C300.053 361.128 306.983 356.53 312.135 353.479C314.714 351.952 316.816 350.831 318.457 350.097C320.168 349.331 321.161 349.089 321.609 349.089V345.661C320.371 345.661 318.795 346.19 317.057 346.968C315.248 347.777 313.021 348.97 310.388 350.529C305.119 353.65 298.103 358.309 289.355 364.491L291.333 367.29ZM321.609 349.089C322.053 349.089 322.126 349.21 322.151 349.242C322.241 349.359 322.427 349.735 322.427 350.656H325.855C325.855 349.39 325.619 348.125 324.865 347.148C324.046 346.087 322.854 345.661 321.609 345.661V349.089ZM322.427 350.656C322.427 350.807 322.374 351.149 322.136 351.742C321.907 352.315 321.542 353.03 321.02 353.897C319.976 355.63 318.378 357.843 316.197 360.55L318.866 362.7C321.091 359.939 322.797 357.589 323.956 355.666C324.536 354.704 324.998 353.818 325.319 353.016C325.632 352.234 325.855 351.428 325.855 350.656H322.427ZM316.199 360.546L294.074 387.875L296.738 390.032L318.863 362.704L316.199 360.546ZM290.026 390.043L312.01 363.371L309.365 361.191L287.381 387.863L290.026 390.043ZM312.012 363.369L316.091 358.4L313.441 356.225L309.363 361.194L312.012 363.369ZM316.111 358.374C317.872 356.142 319.132 354.311 319.783 352.937L316.685 351.469C316.211 352.47 315.16 354.045 313.42 356.251L316.111 358.374ZM319.948 352.203V352.016H316.52V352.203H319.948ZM319.948 352.016C319.948 351.618 319.861 351 319.385 350.476C318.881 349.921 318.23 349.786 317.766 349.786V353.214C317.613 353.214 317.197 353.165 316.849 352.782C316.529 352.43 316.52 352.07 316.52 352.016H319.948ZM317.766 349.786C317.412 349.786 317.092 349.872 316.877 349.941C316.637 350.017 316.387 350.12 316.137 350.234C315.636 350.463 315.031 350.787 314.338 351.19C312.945 352 311.077 353.196 308.746 354.766C304.077 357.91 297.462 362.613 288.91 368.866L290.934 371.634C299.475 365.387 306.048 360.715 310.66 357.609C312.97 356.054 314.766 354.907 316.061 354.154C316.711 353.776 317.206 353.514 317.561 353.352C317.738 353.271 317.855 353.227 317.92 353.206C318.011 353.177 317.936 353.214 317.766 353.214V349.786ZM288.899 368.874L263.165 387.999L265.21 390.751L290.944 371.626L288.899 368.874ZM264.217 391.089L288.733 390.667L288.674 387.239L264.158 387.661L264.217 391.089ZM308.25 402.922L309.804 403.645C310.138 402.926 309.936 402.071 309.315 401.579C308.694 401.086 307.816 401.084 307.192 401.573L308.25 402.922ZM298.453 410.609L299.445 412.007C299.468 411.991 299.49 411.975 299.511 411.958L298.453 410.609ZM287.438 414.359L287.112 412.677C287.104 412.678 287.096 412.68 287.088 412.681L287.438 414.359ZM299.25 407.844L300.288 409.208C300.299 409.2 300.309 409.191 300.32 409.183L299.25 407.844ZM312.281 397.438L313.351 398.777C313.357 398.772 313.362 398.768 313.368 398.763L312.281 397.438ZM331.781 391.016H330.067C330.067 391.962 330.835 392.73 331.781 392.73V391.016ZM331.641 392.797L331.572 391.084C330.83 391.114 330.192 391.618 329.991 392.332L331.641 392.797ZM324.141 396.078L325.329 397.314L325.335 397.308L324.141 396.078ZM329.953 391.859L330.614 393.441C331.15 393.217 331.536 392.737 331.639 392.166L329.953 391.859ZM330.047 391.344L331.733 391.65C331.752 391.549 331.761 391.447 331.761 391.344H330.047ZM318.188 399.078L316.958 397.883L316.955 397.887L318.188 399.078ZM315.188 414.406L315.367 412.702C315.362 412.701 315.357 412.701 315.352 412.7L315.188 414.406ZM329.156 393.922L330.745 394.566C331.008 393.917 330.85 393.174 330.346 392.688C329.842 392.202 329.094 392.072 328.455 392.358L329.156 393.922ZM325.312 397.016L326.514 398.238C326.517 398.235 326.521 398.231 326.524 398.228L325.312 397.016ZM322.641 400.672H320.927C320.927 401.126 321.107 401.562 321.429 401.884L322.641 400.672ZM323.016 401.047L321.804 402.259C322.125 402.58 322.561 402.761 323.016 402.761V401.047ZM326.531 398.141L327.887 399.19L327.887 399.189L326.531 398.141ZM307.192 401.573L297.395 409.261L299.511 411.958L309.308 404.27L307.192 401.573ZM297.461 409.212C294.98 410.973 292.842 412.259 291.038 413.099C289.214 413.948 287.847 414.286 286.875 414.286V417.714C288.559 417.714 290.45 417.154 292.485 416.206C294.541 415.249 296.864 413.839 299.445 412.007L297.461 409.212ZM286.875 414.286C286.952 414.286 287.324 414.306 287.665 414.647C288.006 414.988 288.027 415.361 288.027 415.438H284.598C284.598 415.889 284.713 416.543 285.241 417.071C285.77 417.6 286.423 417.714 286.875 417.714V414.286ZM288.027 415.438C288.027 415.49 288.017 415.585 287.97 415.7C287.923 415.817 287.852 415.914 287.78 415.984C287.65 416.108 287.586 416.079 287.787 416.037L287.088 412.681C286.539 412.796 285.913 413.025 285.408 413.509C284.853 414.04 284.598 414.732 284.598 415.438H288.027ZM287.763 416.042C291.086 415.399 295.292 413.009 300.288 409.208L298.212 406.48C293.27 410.241 289.602 412.195 287.112 412.677L287.763 416.042ZM300.32 409.183L313.351 398.777L311.212 396.098L298.18 406.504L300.32 409.183ZM313.368 398.763C316.881 395.882 319.937 393.765 322.544 392.376C325.175 390.974 327.216 390.386 328.734 390.386V386.958C326.409 386.958 323.786 387.83 320.932 389.351C318.055 390.883 314.807 393.15 311.194 396.112L313.368 398.763ZM328.734 390.386C329.578 390.386 329.897 390.556 329.974 390.616C329.999 390.635 330.007 390.646 330.018 390.672C330.034 390.707 330.067 390.808 330.067 391.016H333.495C333.495 389.832 333.088 388.686 332.065 387.899C331.127 387.178 329.922 386.958 328.734 386.958V390.386ZM331.781 392.73C331.899 392.73 331.668 392.76 331.402 392.518C331.268 392.397 331.184 392.256 331.139 392.133C331.118 392.076 331.108 392.03 331.103 391.999C331.101 391.984 331.1 391.973 331.099 391.965C331.099 391.957 331.099 391.953 331.099 391.953H334.526C334.526 391.332 334.348 390.564 333.708 389.982C333.098 389.428 332.351 389.302 331.781 389.302V392.73ZM331.099 391.953C331.099 391.874 331.114 391.73 331.195 391.562C331.278 391.388 331.4 391.257 331.518 391.172C331.627 391.093 331.707 391.072 331.712 391.07C331.716 391.069 331.676 391.08 331.572 391.084L331.709 394.51C332.245 394.488 332.931 394.378 333.521 393.953C334.215 393.454 334.526 392.704 334.526 391.953H331.099ZM329.991 392.332C329.438 394.295 328.385 396.301 326.777 398.347L329.473 400.465C331.302 398.137 332.593 395.736 333.29 393.262L329.991 392.332ZM326.777 398.347C324.805 400.857 323.263 401.63 322.172 401.63V405.058C324.893 405.058 327.32 403.205 329.473 400.465L326.777 398.347ZM322.172 401.63C322.016 401.63 321.946 401.611 321.934 401.608C321.93 401.606 321.989 401.625 322.064 401.694C322.1 401.726 322.131 401.763 322.156 401.801C322.18 401.838 322.194 401.869 322.201 401.888C322.213 401.923 322.198 401.903 322.198 401.797H318.77C318.77 402.617 319.001 403.536 319.748 404.221C320.467 404.88 321.38 405.058 322.172 405.058V401.63ZM322.198 401.797C322.198 401.522 322.321 401.004 322.843 400.189C323.353 399.391 324.164 398.433 325.329 397.314L322.953 394.843C321.679 396.067 320.663 397.234 319.954 398.342C319.257 399.433 318.77 400.603 318.77 401.797H322.198ZM325.335 397.308C327.42 395.283 329.178 394.041 330.614 393.441L329.292 390.278C327.291 391.115 325.174 392.686 322.947 394.848L325.335 397.308ZM331.639 392.166L331.733 391.65L328.361 391.037L328.267 391.553L331.639 392.166ZM331.761 391.344C331.761 390.861 331.639 390.184 331.095 389.64C330.551 389.095 329.874 388.973 329.391 388.973V392.402C329.345 392.402 328.996 392.389 328.671 392.064C328.345 391.738 328.333 391.389 328.333 391.344H331.761ZM329.391 388.973C328.517 388.973 327.633 389.266 326.8 389.67C325.947 390.083 325.024 390.675 324.039 391.413C322.068 392.889 319.704 395.059 316.958 397.883L319.417 400.273C322.108 397.504 324.33 395.478 326.094 394.157C326.976 393.497 327.707 393.04 328.296 392.754C328.904 392.459 329.249 392.402 329.391 392.402V388.973ZM316.955 397.887C314.222 400.714 312.123 403.165 310.696 405.228C309.327 407.205 308.364 409.118 308.364 410.797H311.792C311.792 410.257 312.18 409.107 313.515 407.178C314.791 405.335 316.746 403.036 319.42 400.269L316.955 397.887ZM308.364 410.797C308.364 411.742 308.565 412.662 309.056 413.475C309.551 414.296 310.272 414.895 311.126 415.299L312.593 412.201C312.259 412.043 312.09 411.868 311.991 411.705C311.888 411.533 311.792 411.258 311.792 410.797H308.364ZM311.126 415.299C312.021 415.723 313.409 415.957 315.023 416.112L315.352 412.7C313.716 412.543 312.885 412.339 312.593 412.201L311.126 415.299ZM315.008 416.111C315.26 416.137 315.454 416.169 315.6 416.201C315.671 416.216 315.726 416.231 315.765 416.243C315.784 416.249 315.798 416.254 315.808 416.258C315.813 416.26 315.817 416.261 315.82 416.262C315.822 416.263 315.824 416.264 315.824 416.264C315.823 416.264 315.822 416.263 315.819 416.262C315.817 416.261 315.813 416.259 315.807 416.256C315.797 416.25 315.78 416.24 315.759 416.226C315.718 416.198 315.649 416.145 315.573 416.06C315.496 415.972 315.412 415.851 315.35 415.694C315.286 415.534 315.255 415.367 315.255 415.203H318.683C318.683 413.967 317.727 413.36 317.223 413.135C316.677 412.89 316.017 412.77 315.367 412.702L315.008 416.111ZM315.255 415.203C315.255 414.78 315.469 414.465 315.648 414.312C315.776 414.202 315.836 414.213 315.678 414.258C315.366 414.347 314.74 414.427 313.688 414.427V417.855C314.822 417.855 315.837 417.778 316.619 417.554C317.007 417.443 317.478 417.259 317.879 416.915C318.331 416.527 318.683 415.939 318.683 415.203H315.255ZM313.688 414.427C311.476 414.427 310.138 413.92 309.357 413.209C308.606 412.526 308.089 411.395 308.089 409.484H304.661C304.661 412.011 305.362 414.208 307.049 415.744C308.706 417.252 311.024 417.855 313.688 417.855V414.427ZM308.089 409.484C308.089 408.169 308.591 406.252 309.804 403.645L306.696 402.199C305.409 404.967 304.661 407.425 304.661 409.484H308.089ZM328.455 392.358C327.233 392.906 325.758 394.147 324.101 395.804L326.524 398.228C328.18 396.572 329.267 395.751 329.857 395.486L328.455 392.358ZM324.111 395.793C323.191 396.697 322.449 397.514 321.925 398.231C321.662 398.59 321.428 398.959 321.255 399.331C321.088 399.688 320.927 400.152 320.927 400.672H324.355C324.355 400.848 324.304 400.902 324.36 400.782C324.409 400.677 324.51 400.504 324.692 400.253C325.059 399.752 325.653 399.084 326.514 398.238L324.111 395.793ZM321.429 401.884L321.804 402.259L324.228 399.835L323.853 399.46L321.429 401.884ZM323.016 402.761C324.049 402.761 324.945 402.199 325.619 401.641C326.344 401.043 327.1 400.206 327.887 399.19L325.176 397.091C324.463 398.013 323.883 398.629 323.435 398.999C322.937 399.411 322.826 399.333 323.016 399.333V402.761ZM327.887 399.189C329.209 397.481 330.191 395.932 330.745 394.566L327.568 393.278C327.184 394.224 326.416 395.488 325.176 397.092L327.887 399.189ZM337.688 402.922L339.242 403.645C339.576 402.926 339.374 402.071 338.752 401.579C338.131 401.086 337.253 401.084 336.629 401.573L337.688 402.922ZM327.891 410.609L328.883 412.007C328.905 411.991 328.927 411.975 328.949 411.958L327.891 410.609ZM316.875 414.359L316.549 412.677C316.541 412.678 316.533 412.68 316.525 412.681L316.875 414.359ZM328.688 407.844L329.725 409.208C329.736 409.2 329.747 409.191 329.757 409.183L328.688 407.844ZM341.719 397.438L342.788 398.777C342.794 398.772 342.8 398.768 342.806 398.763L341.719 397.438ZM361.219 391.016H359.505C359.505 391.962 360.272 392.73 361.219 392.73V391.016ZM361.078 392.797L361.01 391.084C360.268 391.114 359.63 391.618 359.428 392.332L361.078 392.797ZM353.578 396.078L354.766 397.314L354.772 397.308L353.578 396.078ZM359.391 391.859L360.052 393.441C360.587 393.217 360.973 392.737 361.077 392.166L359.391 391.859ZM359.484 391.344L361.171 391.65C361.189 391.549 361.198 391.447 361.198 391.344H359.484ZM347.625 399.078L346.396 397.883L346.393 397.887L347.625 399.078ZM344.625 414.406L344.804 412.702C344.799 412.701 344.794 412.701 344.789 412.7L344.625 414.406ZM358.594 393.922L360.182 394.566C360.445 393.917 360.287 393.174 359.784 392.688C359.28 392.202 358.531 392.072 357.893 392.358L358.594 393.922ZM354.75 397.016L355.951 398.238C355.955 398.235 355.958 398.231 355.962 398.228L354.75 397.016ZM352.078 400.672H350.364C350.364 401.126 350.545 401.562 350.866 401.884L352.078 400.672ZM352.453 401.047L351.241 402.259C351.563 402.58 351.999 402.761 352.453 402.761V401.047ZM355.969 398.141L357.324 399.19L357.324 399.189L355.969 398.141ZM336.629 401.573L326.833 409.261L328.949 411.958L338.746 404.27L336.629 401.573ZM326.898 409.212C324.417 410.973 322.279 412.259 320.476 413.099C318.651 413.948 317.285 414.286 316.312 414.286V417.714C317.997 417.714 319.888 417.154 321.923 416.206C323.978 415.249 326.302 413.839 328.883 412.007L326.898 409.212ZM316.312 414.286C316.389 414.286 316.762 414.306 317.103 414.647C317.444 414.988 317.464 415.361 317.464 415.438H314.036C314.036 415.889 314.15 416.543 314.679 417.071C315.207 417.6 315.861 417.714 316.312 417.714V414.286ZM317.464 415.438C317.464 415.49 317.455 415.585 317.408 415.7C317.36 415.817 317.29 415.914 317.217 415.984C317.087 416.108 317.024 416.079 317.225 416.037L316.525 412.681C315.976 412.796 315.35 413.025 314.845 413.509C314.291 414.04 314.036 414.732 314.036 415.438H317.464ZM317.201 416.042C320.523 415.399 324.73 413.009 329.725 409.208L327.65 406.48C322.708 410.241 319.039 412.195 316.549 412.677L317.201 416.042ZM329.757 409.183L342.788 398.777L340.649 396.098L327.618 406.504L329.757 409.183ZM342.806 398.763C346.318 395.882 349.374 393.765 351.982 392.376C354.612 390.974 356.653 390.386 358.172 390.386V386.958C355.847 386.958 353.224 387.83 350.37 389.351C347.493 390.883 344.244 393.15 340.632 396.112L342.806 398.763ZM358.172 390.386C359.016 390.386 359.334 390.556 359.412 390.616C359.436 390.635 359.445 390.646 359.456 390.672C359.471 390.707 359.505 390.808 359.505 391.016H362.933C362.933 389.832 362.525 388.686 361.502 387.899C360.564 387.178 359.359 386.958 358.172 386.958V390.386ZM361.219 392.73C361.337 392.73 361.105 392.76 360.839 392.518C360.705 392.397 360.621 392.256 360.576 392.133C360.555 392.076 360.545 392.03 360.541 391.999C360.538 391.984 360.537 391.973 360.537 391.965C360.536 391.957 360.536 391.953 360.536 391.953H363.964C363.964 391.332 363.786 390.564 363.145 389.982C362.536 389.428 361.788 389.302 361.219 389.302V392.73ZM360.536 391.953C360.536 391.874 360.551 391.73 360.632 391.562C360.716 391.388 360.837 391.257 360.956 391.172C361.064 391.093 361.145 391.072 361.149 391.07C361.154 391.069 361.113 391.08 361.01 391.084L361.147 394.51C361.683 394.488 362.369 394.378 362.959 393.953C363.652 393.454 363.964 392.704 363.964 391.953H360.536ZM359.428 392.332C358.875 394.295 357.823 396.301 356.215 398.347L358.91 400.465C360.74 398.137 362.031 395.736 362.728 393.262L359.428 392.332ZM356.215 398.347C354.243 400.857 352.701 401.63 351.609 401.63V405.058C354.33 405.058 356.757 403.205 358.91 400.465L356.215 398.347ZM351.609 401.63C351.454 401.63 351.383 401.611 351.372 401.608C351.367 401.606 351.427 401.625 351.502 401.694C351.538 401.726 351.569 401.763 351.593 401.801C351.618 401.838 351.631 401.869 351.638 401.888C351.651 401.923 351.636 401.903 351.636 401.797H348.208C348.208 402.617 348.438 403.536 349.186 404.221C349.904 404.88 350.818 405.058 351.609 405.058V401.63ZM351.636 401.797C351.636 401.522 351.759 401.004 352.28 400.189C352.79 399.391 353.602 398.433 354.766 397.314L352.39 394.843C351.117 396.067 350.1 397.234 349.392 398.342C348.694 399.433 348.208 400.603 348.208 401.797H351.636ZM354.772 397.308C356.857 395.283 358.615 394.041 360.052 393.441L358.729 390.278C356.728 391.115 354.611 392.686 352.384 394.848L354.772 397.308ZM361.077 392.166L361.171 391.65L357.798 391.037L357.704 391.553L361.077 392.166ZM361.198 391.344C361.198 390.861 361.076 390.184 360.532 389.64C359.988 389.095 359.311 388.973 358.828 388.973V392.402C358.783 392.402 358.434 392.389 358.108 392.064C357.783 391.738 357.77 391.389 357.77 391.344H361.198ZM358.828 388.973C357.954 388.973 357.071 389.266 356.237 389.67C355.385 390.083 354.462 390.675 353.476 391.413C351.506 392.889 349.142 395.059 346.396 397.883L348.854 400.273C351.546 397.504 353.768 395.478 355.531 394.157C356.413 393.497 357.144 393.04 357.733 392.754C358.342 392.459 358.686 392.402 358.828 392.402V388.973ZM346.393 397.887C343.66 400.714 341.561 403.165 340.134 405.228C338.765 407.205 337.802 409.118 337.802 410.797H341.23C341.23 410.257 341.618 409.107 342.952 407.178C344.228 405.335 346.184 403.036 348.857 400.269L346.393 397.887ZM337.802 410.797C337.802 411.742 338.003 412.662 338.493 413.475C338.988 414.296 339.71 414.895 340.563 415.299L342.031 412.201C341.697 412.043 341.527 411.868 341.429 411.705C341.325 411.533 341.23 411.258 341.23 410.797H337.802ZM340.563 415.299C341.459 415.723 342.847 415.957 344.461 416.112L344.789 412.7C343.153 412.543 342.322 412.339 342.031 412.201L340.563 415.299ZM344.446 416.111C344.697 416.137 344.892 416.169 345.037 416.201C345.109 416.216 345.163 416.231 345.202 416.243C345.221 416.249 345.236 416.254 345.246 416.258C345.251 416.26 345.255 416.261 345.257 416.262C345.26 416.263 345.261 416.264 345.261 416.264C345.261 416.264 345.26 416.263 345.257 416.262C345.254 416.261 345.25 416.259 345.245 416.256C345.234 416.25 345.218 416.24 345.196 416.226C345.155 416.198 345.086 416.145 345.011 416.06C344.933 415.972 344.85 415.851 344.787 415.694C344.723 415.534 344.692 415.367 344.692 415.203H348.12C348.12 413.967 347.164 413.36 346.661 413.135C346.115 412.89 345.454 412.77 344.804 412.702L344.446 416.111ZM344.692 415.203C344.692 414.78 344.907 414.465 345.086 414.312C345.214 414.202 345.274 414.213 345.115 414.258C344.804 414.347 344.178 414.427 343.125 414.427V417.855C344.26 417.855 345.274 417.778 346.057 417.554C346.445 417.443 346.915 417.259 347.317 416.915C347.769 416.527 348.12 415.939 348.12 415.203H344.692ZM343.125 414.427C340.914 414.427 339.575 413.92 338.794 413.209C338.044 412.526 337.526 411.395 337.526 409.484H334.099C334.099 412.011 334.8 414.208 336.487 415.744C338.143 417.252 340.461 417.855 343.125 417.855V414.427ZM337.526 409.484C337.526 408.169 338.029 406.252 339.242 403.645L336.133 402.199C334.846 404.967 334.099 407.425 334.099 409.484H337.526ZM357.893 392.358C356.67 392.906 355.195 394.147 353.538 395.804L355.962 398.228C357.617 396.572 358.705 395.751 359.295 395.486L357.893 392.358ZM353.549 395.793C352.629 396.697 351.886 397.514 351.362 398.231C351.1 398.59 350.866 398.959 350.692 399.331C350.526 399.688 350.364 400.152 350.364 400.672H353.792C353.792 400.848 353.742 400.902 353.798 400.782C353.847 400.677 353.947 400.504 354.13 400.253C354.496 399.752 355.09 399.084 355.951 398.238L353.549 395.793ZM350.866 401.884L351.241 402.259L353.665 399.835L353.29 399.46L350.866 401.884ZM352.453 402.761C353.487 402.761 354.383 402.199 355.057 401.641C355.781 401.043 356.537 400.206 357.324 399.19L354.613 397.091C353.9 398.013 353.321 398.629 352.873 398.999C352.375 399.411 352.263 399.333 352.453 399.333V402.761ZM357.324 399.189C358.646 397.481 359.628 395.932 360.182 394.566L357.005 393.278C356.622 394.224 355.854 395.488 354.613 397.092L357.324 399.189ZM363.234 408.406L364.906 408.784C365.037 408.206 364.86 407.602 364.438 407.186C364.017 406.77 363.41 406.601 362.834 406.74L363.234 408.406ZM354.422 412.719L355.275 414.205L355.281 414.202L354.422 412.719ZM346.406 414.359L346.667 416.053C346.672 416.053 346.678 416.052 346.684 416.051L346.406 414.359ZM354.469 410.844L353.616 409.357C353.611 409.36 353.607 409.362 353.603 409.365L354.469 410.844ZM363.797 406.719L364.187 408.388C364.725 408.262 365.169 407.885 365.38 407.375L363.797 406.719ZM372.703 395.797L373.811 397.105L373.818 397.099L372.703 395.797ZM380.766 401.938L379.861 400.482L379.853 400.487L380.766 401.938ZM368.859 407.656L368.31 406.033C367.853 406.187 367.482 406.527 367.289 406.969L368.859 407.656ZM369.891 413.984L369.195 415.551C369.219 415.562 369.244 415.572 369.269 415.582L369.891 413.984ZM373.078 414.406L373.01 416.119C373.017 416.119 373.024 416.119 373.031 416.12L373.078 414.406ZM369.422 405.781L367.832 405.141C367.567 405.799 367.735 406.553 368.254 407.036C368.774 407.519 369.538 407.633 370.175 407.321L369.422 405.781ZM378.516 400.062L377.494 398.686L377.483 398.695L378.516 400.062ZM375.562 397.062L374.309 395.893C374.306 395.897 374.303 395.9 374.299 395.904L375.562 397.062ZM362.834 406.74C361.861 406.973 360.597 407.497 359.106 408.226C357.588 408.969 355.737 409.975 353.562 411.236L355.281 414.202C357.419 412.962 359.194 412 360.613 411.305C362.06 410.597 363.045 410.214 363.634 410.073L362.834 406.74ZM353.569 411.232C349.769 413.412 347.226 414.286 345.75 414.286V417.714C348.212 417.714 351.45 416.4 355.275 414.205L353.569 411.232ZM345.75 414.286C345.864 414.286 346.253 414.323 346.588 414.685C346.898 415.021 346.901 415.362 346.901 415.391H343.474C343.474 415.825 343.571 416.471 344.069 417.01C344.59 417.575 345.261 417.714 345.75 417.714V414.286ZM346.901 415.391C346.901 415.46 346.888 415.576 346.828 415.711C346.766 415.848 346.679 415.952 346.599 416.019C346.525 416.082 346.476 416.099 346.488 416.094C346.501 416.089 346.555 416.071 346.667 416.053L346.146 412.665C345.584 412.752 344.927 412.944 344.385 413.402C343.773 413.921 343.474 414.638 343.474 415.391H346.901ZM346.684 416.051C348.92 415.684 351.838 414.371 355.335 412.323L353.603 409.365C350.162 411.379 347.705 412.41 346.129 412.668L346.684 416.051ZM355.322 412.33C359.083 410.172 362.023 408.894 364.187 408.388L363.407 405.05C360.759 405.669 357.479 407.14 353.616 409.357L355.322 412.33ZM365.38 407.375C366.67 404.262 369.412 400.831 373.811 397.105L371.595 394.489C366.994 398.387 363.798 402.238 362.213 406.063L365.38 407.375ZM373.818 397.099C378.525 393.069 382.201 391.37 384.938 391.37V387.942C380.924 387.942 376.444 390.337 371.588 394.495L373.818 397.099ZM384.938 391.37C385.985 391.37 386.451 391.599 386.64 391.759C386.775 391.874 386.973 392.125 386.973 392.844H390.402C390.402 391.438 389.975 390.095 388.86 389.147C387.799 388.245 386.39 387.942 384.938 387.942V391.37ZM386.973 392.844C386.973 393.67 386.582 394.737 385.415 396.077C384.25 397.414 382.427 398.888 379.861 400.482L381.67 403.393C384.386 401.706 386.523 400.023 387.999 398.329C389.473 396.638 390.402 394.799 390.402 392.844H386.973ZM379.853 400.487C376.084 402.857 372.237 404.704 368.31 406.033L369.409 409.28C373.607 407.859 377.697 405.893 381.678 403.388L379.853 400.487ZM367.289 406.969C366.757 408.186 366.489 409.467 366.489 410.797H369.917C369.917 409.939 370.087 409.126 370.43 408.343L367.289 406.969ZM366.489 410.797C366.489 411.795 366.66 412.765 367.11 413.614C367.576 414.494 368.29 415.149 369.195 415.551L370.587 412.418C370.366 412.32 370.237 412.194 370.14 412.011C370.027 411.798 369.917 411.424 369.917 410.797H366.489ZM369.269 415.582C370.133 415.918 371.466 416.057 373.01 416.119L373.147 412.694C371.565 412.63 370.774 412.489 370.512 412.387L369.269 415.582ZM373.031 416.12C373.252 416.126 373.412 416.143 373.519 416.162C373.632 416.182 373.65 416.197 373.612 416.179C373.572 416.16 373.421 416.081 373.279 415.887C373.121 415.672 373.052 415.423 373.052 415.203H376.48C376.48 414.734 376.34 414.263 376.041 413.857C375.758 413.472 375.397 413.231 375.076 413.079C374.471 412.794 373.764 412.711 373.126 412.693L373.031 416.12ZM373.052 415.203C373.052 414.56 373.489 414.267 373.513 414.252C373.524 414.246 373.391 414.319 372.983 414.402C372.196 414.562 370.894 414.661 369 414.661V418.089C370.949 418.089 372.531 417.992 373.666 417.762C374.219 417.649 374.806 417.479 375.298 417.179C375.802 416.872 376.48 416.237 376.48 415.203H373.052ZM369 414.661C367.179 414.661 366.133 414.26 365.554 413.757C365.022 413.294 364.62 412.512 364.62 411.078H361.192C361.192 413.175 361.807 415.042 363.305 416.344C364.758 417.607 366.759 418.089 369 418.089V414.661ZM364.62 411.078C364.62 410.417 364.71 409.655 364.906 408.784L361.562 408.029C361.322 409.095 361.192 410.114 361.192 411.078H364.62ZM370.175 407.321C373.169 405.856 376.294 403.887 379.548 401.43L377.483 398.695C374.362 401.05 371.425 402.894 368.669 404.242L370.175 407.321ZM379.538 401.439C381.712 399.824 383.421 398.321 384.603 396.93C385.744 395.587 386.605 394.106 386.605 392.562H383.177C383.177 392.863 382.974 393.553 381.991 394.71C381.048 395.82 379.57 397.145 377.494 398.686L379.538 401.439ZM386.605 392.562C386.605 391.958 386.469 391.186 385.896 390.561C385.297 389.907 384.508 389.723 383.859 389.723V393.152C383.899 393.152 383.625 393.155 383.369 392.877C383.14 392.627 383.177 392.417 383.177 392.562H386.605ZM383.859 389.723C382.344 389.723 380.801 390.407 379.3 391.425C377.771 392.462 376.106 393.968 374.309 395.893L376.816 398.232C378.519 396.407 379.987 395.101 381.224 394.262C382.488 393.405 383.343 393.152 383.859 393.152V389.723ZM374.299 395.904C371.127 399.362 368.916 402.449 367.832 405.141L371.012 406.421C371.866 404.301 373.748 401.575 376.826 398.221L374.299 395.904ZM388.875 407.984H390.589C390.589 407.321 390.207 406.718 389.607 406.435C389.008 406.151 388.299 406.239 387.787 406.66L388.875 407.984ZM374.438 414.359L374.032 412.694L374.022 412.697L374.438 414.359ZM379.781 412.484L380.421 414.074C380.482 414.05 380.54 414.022 380.598 413.991L379.781 412.484ZM396.938 399.172L395.842 397.854L395.84 397.855L396.938 399.172ZM412.453 389.234L411.3 390.503C411.309 390.511 411.319 390.519 411.328 390.528L412.453 389.234ZM408.188 403.297L409.643 404.203L409.645 404.2L408.188 403.297ZM400.078 414.453L398.827 413.281C398.36 413.78 398.234 414.508 398.506 415.135C398.777 415.762 399.395 416.167 400.078 416.167V414.453ZM398.578 415.953L398.257 417.637C398.262 417.638 398.267 417.639 398.272 417.639L398.578 415.953ZM396.328 412.062L394.733 412.689C394.934 413.201 395.368 413.585 395.9 413.722C396.433 413.859 396.998 413.733 397.422 413.382L396.328 412.062ZM403.547 402.688L405.022 403.56L405.023 403.559L403.547 402.688ZM408.656 391.766L410.295 392.269C410.516 391.547 410.24 390.766 409.614 390.344C408.988 389.923 408.161 389.96 407.575 390.436L408.656 391.766ZM391.875 405.406L390.794 404.076C390.27 404.502 390.045 405.196 390.219 405.848C390.393 406.501 390.934 406.99 391.601 407.098L391.875 405.406ZM394.781 408.125L396.377 407.498C396.361 407.459 396.344 407.42 396.326 407.382L394.781 408.125ZM394.969 413.516L396.259 414.644C396.667 414.178 396.791 413.527 396.584 412.943L394.969 413.516ZM393.656 409.812L395.272 409.24C395.268 409.228 395.263 409.216 395.259 409.205L393.656 409.812ZM391.547 411.969L390.049 412.801L390.052 412.807L391.547 411.969ZM387.787 406.66C384.584 409.293 381.818 411.224 379.481 412.489C377.116 413.768 375.335 414.286 374.062 414.286V417.714C376.165 417.714 378.54 416.896 381.113 415.504C383.713 414.096 386.666 412.019 389.963 409.308L387.787 406.66ZM374.062 414.286C374.139 414.286 374.512 414.306 374.853 414.647C375.194 414.988 375.214 415.361 375.214 415.438H371.786C371.786 415.889 371.9 416.543 372.429 417.071C372.957 417.6 373.611 417.714 374.062 417.714V414.286ZM375.214 415.438C375.214 415.455 375.211 415.517 375.182 415.604C375.151 415.695 375.099 415.789 375.028 415.871C374.885 416.035 374.764 416.045 374.853 416.022L374.022 412.697C373.486 412.83 372.896 413.098 372.441 413.621C371.966 414.168 371.786 414.822 371.786 415.438H375.214ZM374.843 416.025C376.127 415.712 378.006 415.047 380.421 414.074L379.141 410.894C376.744 411.86 375.06 412.444 374.032 412.694L374.843 416.025ZM380.598 413.991C381.865 413.305 383.963 411.804 386.809 409.596C389.69 407.36 393.434 404.322 398.035 400.489L395.84 397.855C391.253 401.678 387.544 404.687 384.707 406.888C381.834 409.118 379.948 410.445 378.965 410.977L380.598 413.991ZM398.033 400.49C402.391 396.866 405.682 394.152 407.908 392.347C409.022 391.443 409.862 390.773 410.431 390.332C410.719 390.11 410.922 389.958 411.052 389.866C411.12 389.818 411.145 389.803 411.139 389.806C411.139 389.807 411.1 389.831 411.037 389.86C411.006 389.875 410.942 389.903 410.856 389.931C410.792 389.952 410.6 390.011 410.344 390.011V386.583C409.914 386.583 409.589 386.753 409.585 386.755C409.491 386.799 409.414 386.844 409.367 386.872C409.267 386.932 409.165 387.002 409.073 387.067C408.882 387.202 408.633 387.39 408.334 387.621C407.732 388.086 406.868 388.776 405.748 389.685C403.506 391.504 400.202 394.228 395.842 397.854L398.033 400.49ZM410.344 390.011C410.523 390.011 410.833 390.078 411.3 390.503L413.606 387.966C412.698 387.141 411.602 386.583 410.344 386.583V390.011ZM411.328 390.528C411.802 390.939 411.817 391.176 411.817 391.25H415.245C415.245 389.887 414.542 388.779 413.578 387.941L411.328 390.528ZM411.817 391.25C411.817 392.02 411.495 393.323 410.629 395.278C409.782 397.186 408.49 399.554 406.73 402.394L409.645 404.2C411.448 401.289 412.828 398.774 413.762 396.668C414.676 394.606 415.245 392.762 415.245 391.25H411.817ZM406.732 402.391C403.662 407.323 401.027 410.932 398.827 413.281L401.329 415.625C403.754 413.036 406.526 409.209 409.643 404.203L406.732 402.391ZM400.078 416.167C400.365 416.167 400.585 416.181 400.749 416.201C400.83 416.211 400.89 416.222 400.933 416.231C400.976 416.241 400.994 416.248 400.992 416.247C400.991 416.247 400.958 416.234 400.907 416.203C400.855 416.171 400.775 416.113 400.691 416.019C400.604 415.922 400.521 415.796 400.462 415.642C400.403 415.487 400.38 415.336 400.38 415.203H403.808C403.808 414.653 403.608 414.137 403.244 413.731C402.913 413.362 402.513 413.155 402.188 413.034C401.559 412.801 400.808 412.739 400.078 412.739V416.167ZM400.38 415.203C400.38 415.042 400.428 414.828 400.567 414.63C400.694 414.448 400.832 414.374 400.865 414.359C400.892 414.346 400.857 414.367 400.718 414.389C400.583 414.411 400.39 414.427 400.125 414.427V417.855C400.863 417.855 401.663 417.775 402.338 417.454C402.699 417.282 403.083 417.013 403.375 416.596C403.677 416.164 403.808 415.677 403.808 415.203H400.38ZM400.125 414.427C399.943 414.427 399.552 414.388 398.885 414.267L398.272 417.639C398.979 417.768 399.62 417.855 400.125 417.855V414.427ZM398.899 414.269C398.216 414.139 397.588 414.052 397.078 414.052V417.48C397.256 417.48 397.628 417.517 398.257 417.637L398.899 414.269ZM397.078 414.052C396.662 414.052 396.158 414.124 395.637 414.222L396.269 417.591C396.748 417.501 396.994 417.48 397.078 417.48V414.052ZM395.637 414.222C395.158 414.312 394.912 414.333 394.828 414.333V417.761C395.244 417.761 395.748 417.688 396.269 417.591L395.637 414.222ZM394.828 414.333C393.272 414.333 392.348 413.834 391.742 413.013C391.064 412.095 390.589 410.511 390.589 407.984H387.161C387.161 410.833 387.678 413.28 388.984 415.049C390.363 416.916 392.415 417.761 394.828 417.761V414.333ZM397.422 413.382C399.838 411.38 402.365 408.053 405.022 403.56L402.072 401.815C399.479 406.197 397.193 409.12 395.235 410.743L397.422 413.382ZM405.023 403.559C407.501 399.365 409.273 395.597 410.295 392.269L407.018 391.263C406.102 394.246 404.468 397.76 402.071 401.816L405.023 403.559ZM407.575 390.436L390.794 404.076L392.956 406.736L409.737 393.096L407.575 390.436ZM391.601 407.098C391.953 407.155 392.562 407.465 393.236 408.868L396.326 407.382C395.438 405.535 394.109 404.032 392.149 403.714L391.601 407.098ZM393.186 408.752L394.733 412.689L397.923 411.436L396.377 407.498L393.186 408.752ZM396.584 412.943L395.272 409.24L392.041 410.385L393.353 414.088L396.584 412.943ZM395.259 409.205C394.893 408.24 394.487 407.391 394.014 406.753C393.582 406.17 392.805 405.38 391.641 405.38V408.808C391.133 408.808 391.02 408.47 391.26 408.794C391.458 409.062 391.732 409.572 392.054 410.42L395.259 409.205ZM391.641 405.38C390.775 405.38 389.947 405.759 389.428 406.561C388.992 407.235 388.895 408.026 388.895 408.688H392.323C392.323 408.509 392.338 408.403 392.349 408.352C392.361 408.299 392.36 408.34 392.306 408.423C392.245 408.518 392.135 408.634 391.974 408.717C391.819 408.797 391.691 408.808 391.641 408.808V405.38ZM388.895 408.688C388.895 410.097 389.312 411.475 390.049 412.801L393.045 411.136C392.532 410.212 392.323 409.403 392.323 408.688H388.895ZM390.052 412.807C390.904 414.325 392.206 415.605 394.078 415.605V412.177C394.013 412.177 393.628 412.175 393.042 411.13L390.052 412.807ZM394.078 415.605C394.876 415.605 395.67 415.317 396.259 414.644L393.679 412.387C393.735 412.322 393.818 412.259 393.917 412.217C394.011 412.178 394.074 412.177 394.078 412.177V415.605ZM416.25 407.984H417.964C417.964 407.321 417.582 406.718 416.982 406.435C416.383 406.151 415.674 406.239 415.162 406.66L416.25 407.984ZM401.812 414.359L401.407 412.694L401.397 412.697L401.812 414.359ZM407.156 412.484L407.796 414.074C407.857 414.05 407.915 414.022 407.973 413.991L407.156 412.484ZM424.312 399.172L423.217 397.854L423.215 397.855L424.312 399.172ZM439.828 389.234L438.675 390.503C438.684 390.511 438.694 390.519 438.703 390.528L439.828 389.234ZM435.562 403.297L437.018 404.203L437.02 404.2L435.562 403.297ZM427.453 414.453L426.202 413.281C425.735 413.78 425.609 414.508 425.881 415.135C426.152 415.762 426.77 416.167 427.453 416.167V414.453ZM425.953 415.953L425.632 417.637C425.637 417.638 425.642 417.639 425.647 417.639L425.953 415.953ZM423.703 412.062L422.108 412.689C422.309 413.201 422.743 413.585 423.275 413.722C423.808 413.859 424.373 413.733 424.797 413.382L423.703 412.062ZM430.922 402.688L432.397 403.56L432.398 403.559L430.922 402.688ZM436.031 391.766L437.67 392.269C437.891 391.547 437.615 390.766 436.989 390.344C436.363 389.923 435.536 389.96 434.95 390.436L436.031 391.766ZM419.25 405.406L418.169 404.076C417.645 404.502 417.42 405.196 417.594 405.848C417.768 406.501 418.309 406.99 418.976 407.098L419.25 405.406ZM422.156 408.125L423.752 407.498C423.736 407.459 423.719 407.42 423.701 407.382L422.156 408.125ZM422.344 413.516L423.634 414.644C424.042 414.178 424.166 413.527 423.959 412.943L422.344 413.516ZM421.031 409.812L422.647 409.24C422.643 409.228 422.638 409.216 422.634 409.205L421.031 409.812ZM418.922 411.969L417.424 412.801L417.427 412.807L418.922 411.969ZM415.162 406.66C411.959 409.293 409.193 411.224 406.856 412.489C404.491 413.768 402.71 414.286 401.438 414.286V417.714C403.54 417.714 405.915 416.896 408.488 415.504C411.088 414.096 414.041 412.019 417.338 409.308L415.162 406.66ZM401.438 414.286C401.514 414.286 401.887 414.306 402.228 414.647C402.569 414.988 402.589 415.361 402.589 415.438H399.161C399.161 415.889 399.275 416.543 399.804 417.071C400.332 417.6 400.986 417.714 401.438 417.714V414.286ZM402.589 415.438C402.589 415.455 402.586 415.517 402.557 415.604C402.526 415.695 402.474 415.789 402.403 415.871C402.26 416.035 402.139 416.045 402.228 416.022L401.397 412.697C400.861 412.83 400.271 413.098 399.816 413.621C399.341 414.168 399.161 414.822 399.161 415.438H402.589ZM402.218 416.025C403.502 415.712 405.381 415.047 407.796 414.074L406.516 410.894C404.119 411.86 402.435 412.444 401.407 412.694L402.218 416.025ZM407.973 413.991C409.24 413.305 411.338 411.804 414.184 409.596C417.065 407.36 420.809 404.322 425.41 400.489L423.215 397.855C418.628 401.678 414.919 404.687 412.082 406.888C409.209 409.118 407.323 410.445 406.34 410.977L407.973 413.991ZM425.408 400.49C429.766 396.866 433.057 394.152 435.283 392.347C436.397 391.443 437.237 390.773 437.806 390.332C438.094 390.11 438.297 389.958 438.427 389.866C438.495 389.818 438.52 389.803 438.514 389.806C438.514 389.807 438.475 389.831 438.412 389.86C438.381 389.875 438.317 389.903 438.231 389.931C438.167 389.952 437.975 390.011 437.719 390.011V386.583C437.289 386.583 436.964 386.753 436.96 386.755C436.866 386.799 436.789 386.844 436.742 386.872C436.642 386.932 436.54 387.002 436.448 387.067C436.257 387.202 436.008 387.39 435.709 387.621C435.107 388.086 434.243 388.776 433.123 389.685C430.881 391.504 427.577 394.228 423.217 397.854L425.408 400.49ZM437.719 390.011C437.898 390.011 438.208 390.078 438.675 390.503L440.981 387.966C440.073 387.141 438.977 386.583 437.719 386.583V390.011ZM438.703 390.528C439.177 390.939 439.192 391.176 439.192 391.25H442.62C442.62 389.887 441.917 388.779 440.953 387.941L438.703 390.528ZM439.192 391.25C439.192 392.02 438.87 393.323 438.004 395.278C437.157 397.186 435.865 399.554 434.105 402.394L437.02 404.2C438.823 401.289 440.203 398.774 441.137 396.668C442.051 394.606 442.62 392.762 442.62 391.25H439.192ZM434.107 402.391C431.037 407.323 428.402 410.932 426.202 413.281L428.704 415.625C431.129 413.036 433.901 409.209 437.018 404.203L434.107 402.391ZM427.453 416.167C427.74 416.167 427.96 416.181 428.124 416.201C428.205 416.211 428.265 416.222 428.308 416.231C428.351 416.241 428.369 416.248 428.367 416.247C428.366 416.247 428.333 416.234 428.282 416.203C428.23 416.171 428.15 416.113 428.066 416.019C427.979 415.922 427.896 415.796 427.837 415.642C427.778 415.487 427.755 415.336 427.755 415.203H431.183C431.183 414.653 430.983 414.137 430.619 413.731C430.288 413.362 429.888 413.155 429.563 413.034C428.934 412.801 428.183 412.739 427.453 412.739V416.167ZM427.755 415.203C427.755 415.042 427.803 414.828 427.942 414.63C428.069 414.448 428.207 414.374 428.24 414.359C428.267 414.346 428.232 414.367 428.093 414.389C427.958 414.411 427.765 414.427 427.5 414.427V417.855C428.238 417.855 429.038 417.775 429.713 417.454C430.074 417.282 430.458 417.013 430.75 416.596C431.052 416.164 431.183 415.677 431.183 415.203H427.755ZM427.5 414.427C427.318 414.427 426.927 414.388 426.26 414.267L425.647 417.639C426.354 417.768 426.995 417.855 427.5 417.855V414.427ZM426.274 414.269C425.591 414.139 424.963 414.052 424.453 414.052V417.48C424.631 417.48 425.003 417.517 425.632 417.637L426.274 414.269ZM424.453 414.052C424.037 414.052 423.533 414.124 423.012 414.222L423.644 417.591C424.123 417.501 424.369 417.48 424.453 417.48V414.052ZM423.012 414.222C422.533 414.312 422.287 414.333 422.203 414.333V417.761C422.619 417.761 423.123 417.688 423.644 417.591L423.012 414.222ZM422.203 414.333C420.647 414.333 419.723 413.834 419.117 413.013C418.439 412.095 417.964 410.511 417.964 407.984H414.536C414.536 410.833 415.053 413.28 416.359 415.049C417.738 416.916 419.79 417.761 422.203 417.761V414.333ZM424.797 413.382C427.213 411.38 429.74 408.053 432.397 403.56L429.447 401.815C426.854 406.197 424.568 409.12 422.61 410.743L424.797 413.382ZM432.398 403.559C434.876 399.365 436.648 395.597 437.67 392.269L434.393 391.263C433.477 394.246 431.843 397.76 429.446 401.816L432.398 403.559ZM434.95 390.436L418.169 404.076L420.331 406.736L437.112 393.096L434.95 390.436ZM418.976 407.098C419.328 407.155 419.937 407.465 420.611 408.868L423.701 407.382C422.813 405.535 421.484 404.032 419.524 403.714L418.976 407.098ZM420.561 408.752L422.108 412.689L425.298 411.436L423.752 407.498L420.561 408.752ZM423.959 412.943L422.647 409.24L419.416 410.385L420.728 414.088L423.959 412.943ZM422.634 409.205C422.268 408.24 421.862 407.391 421.389 406.753C420.957 406.17 420.18 405.38 419.016 405.38V408.808C418.508 408.808 418.395 408.47 418.635 408.794C418.833 409.062 419.107 409.572 419.429 410.42L422.634 409.205ZM419.016 405.38C418.15 405.38 417.322 405.759 416.803 406.561C416.367 407.235 416.27 408.026 416.27 408.688H419.698C419.698 408.509 419.713 408.403 419.724 408.352C419.736 408.299 419.735 408.34 419.681 408.423C419.62 408.518 419.51 408.634 419.349 408.717C419.194 408.797 419.066 408.808 419.016 408.808V405.38ZM416.27 408.688C416.27 410.097 416.687 411.475 417.424 412.801L420.42 411.136C419.907 410.212 419.698 409.403 419.698 408.688H416.27ZM417.427 412.807C418.279 414.325 419.581 415.605 421.453 415.605V412.177C421.388 412.177 421.003 412.175 420.417 411.13L417.427 412.807ZM421.453 415.605C422.251 415.605 423.045 415.317 423.634 414.644L421.054 412.387C421.11 412.322 421.193 412.259 421.292 412.217C421.386 412.178 421.449 412.177 421.453 412.177V415.605Z" fill="#D14D72"/>
</g>
<g style="mix-blend-mode:multiply" filter="url(#filter2_d_202_3)">
<path d="M295.033 213C287.621 226.65 282.173 236.857 278.688 243.621C275.259 250.324 272.964 255.139 271.802 258.064L288.229 255.687L288.976 283.018C273.544 295.388 256.094 316.503 236.624 346.363C238.173 326.253 239.528 307.332 240.69 289.599C241.907 271.866 242.515 261.141 242.515 257.424C242.515 255.596 242.404 252.732 242.183 248.832C233.997 242.128 226.309 236.431 219.118 231.738C211.928 226.985 205.54 223.39 199.953 220.952C188.338 215.773 176.833 213.183 165.439 213.183C153.271 213.183 141.462 216.321 130.013 222.598C127.247 228.509 121.909 237.589 114 249.837C120.25 248.74 126.168 248.192 131.755 248.192C154.377 248.192 175.174 253.676 194.146 264.645C199.511 271.287 203.604 277.503 206.425 283.292C209.356 289.447 211.734 296.851 213.56 305.504C215.44 314.584 216.74 325.613 217.459 338.593L215.31 404L243.513 381.803C253.746 362.363 267.018 328.386 280.348 309.434C284.441 303.584 288.617 297.978 292.876 292.615C297.134 287.192 300.951 282.652 304.325 278.996C307.754 275.279 311.073 272.018 314.281 269.215C317.434 260.867 319.01 251.97 319.01 242.524C319.01 234.846 317.959 227.077 315.857 219.216C313.147 218.606 306.205 216.534 295.033 213ZM344.647 256.784C334.027 266.168 327.085 273.877 323.822 279.91C320.448 286.004 318.761 293.499 318.761 302.396C318.761 308.551 319.231 315.437 320.171 323.054C320.835 327.929 321.278 331.524 321.499 333.84C324.984 335.607 329.962 337.435 336.433 339.324C344.84 329.818 351.312 322.323 355.847 316.838C360.383 311.354 363.12 307.758 364.061 306.052C364.061 320.677 363.563 332.164 362.567 340.513C376.284 336.186 385.715 333.566 390.859 332.652C390.306 328.386 390.029 324.669 390.029 321.5L390.444 294.626C390.444 287.74 389.863 282.286 388.702 278.265C387.54 274.182 385.798 271.013 383.475 268.758C381.152 266.504 378.69 264.858 376.091 263.822C373.436 262.908 367.96 261.628 359.664 259.983C350.482 258.094 345.476 257.028 344.647 256.784ZM425.456 256.875C423.907 259.8 420.201 265.011 414.338 272.506C409.637 278.722 406.318 283.901 404.382 288.045C402.336 292.311 401.313 297.978 401.313 305.047C401.313 310.775 402.087 317.082 403.636 323.968C404.521 328.234 404.963 330.336 404.963 330.275C411.324 333.444 416.689 335.302 421.059 335.851C421.888 334.267 423.769 332.073 426.7 329.27C433.891 322.627 439.367 316.442 443.128 310.714C443.294 312.542 443.515 320.434 443.791 334.388L444.206 357.971C430.268 356.326 421.086 351.329 416.661 342.981L403.553 356.692L404.963 375.613C411.545 382.377 421.169 385.759 433.835 385.759C437.873 385.759 440.888 385.241 442.879 384.205C444.538 383.291 447.663 380.427 452.254 375.613C456.624 370.921 460.108 366.137 462.708 361.262C465.418 356.265 467.05 352.152 467.603 348.922C468.211 345.51 468.681 339.934 469.013 332.195L471.004 306.418C471.668 298.801 472 292.585 472 287.771C472 277.29 468.377 269.52 461.131 264.462C453.775 259.404 441.883 256.875 425.456 256.875ZM427.447 275.614C432.757 276.954 438.786 280.611 445.534 286.583C444.981 288.594 442.353 293.712 437.652 301.939C433.006 310.044 429.604 314.797 427.447 316.198V275.614ZM344.315 278.813C353.607 280.824 359.774 284.236 362.816 289.051C360.714 293.133 358.17 297.521 355.183 302.213C352.197 306.844 349.182 311.019 346.14 314.736L344.315 278.813Z" fill="white"/>
<path d="M296.541 208.233L292.607 206.989L290.639 210.614C283.224 224.271 277.754 234.517 274.243 241.332L274.237 241.344C270.807 248.049 268.413 253.05 267.155 256.218L263.966 264.249L272.518 263.012L283.385 261.44L283.911 280.705C271.339 291.242 257.714 307.058 243.025 327.965C244 314.735 244.884 302.058 245.678 289.934C246.889 272.289 247.515 261.355 247.515 257.424C247.515 255.445 247.397 252.462 247.175 248.548L247.051 246.355L245.351 244.963C237.061 238.175 229.23 232.367 221.863 227.559C214.535 222.716 207.897 218.965 201.971 216.378C189.796 210.951 177.606 208.183 165.439 208.183C152.37 208.183 139.74 211.563 127.609 218.213L126.176 218.999L125.484 220.479C122.874 226.058 117.698 234.893 109.8 247.125L103.59 256.74L114.864 254.762C120.867 253.708 126.494 253.192 131.755 253.192C153.207 253.192 172.87 258.305 190.838 268.512C195.739 274.66 199.406 280.308 201.92 285.462C204.635 291.167 206.901 298.165 208.665 306.526C210.469 315.236 211.742 325.928 212.455 338.65L210.313 403.836L209.96 414.574L218.402 407.929L246.605 385.732L247.442 385.073L247.938 384.132C251.522 377.322 255.497 368.708 259.649 359.711C261.501 355.697 263.388 351.607 265.292 347.567C271.561 334.261 278.05 321.392 284.437 312.311L284.444 312.301C288.482 306.53 292.598 301.005 296.791 295.725L296.799 295.714L296.808 295.703C301.014 290.348 304.742 285.916 307.999 282.387L308 282.386C311.329 278.777 314.52 275.646 317.571 272.98L318.515 272.155L318.958 270.982C322.337 262.036 324.01 252.538 324.01 242.524C324.01 234.385 322.895 226.181 320.688 217.924L319.906 215.001L316.954 214.337C314.501 213.786 307.797 211.794 296.541 208.233ZM346.056 251.987L343.406 251.208L341.336 253.037C330.655 262.476 323.147 270.661 319.436 277.509C315.561 284.517 313.761 292.891 313.761 302.396C313.761 308.798 314.25 315.893 315.209 323.666L315.213 323.698L315.217 323.728C315.88 328.593 316.31 332.105 316.522 334.315L316.783 337.055L319.237 338.299C323.126 340.271 328.444 342.201 335.032 344.124L338.077 345.013L340.178 342.637C348.093 333.688 354.323 326.486 358.852 321.046C358.622 328.601 358.203 334.885 357.602 339.921L356.685 347.611L364.071 345.281C377.82 340.944 386.955 338.424 391.734 337.575L396.431 336.74L395.817 332.009C395.285 327.904 395.031 324.423 395.029 321.537L395.443 294.704L395.444 294.665V294.626C395.444 287.537 394.855 281.555 393.508 276.887C392.179 272.22 390.074 268.195 386.957 265.17C384.238 262.531 381.237 260.49 377.942 259.177L377.831 259.133L377.719 259.095C374.69 258.052 368.884 256.715 360.654 255.082C356.075 254.14 352.548 253.405 350.065 252.876C348.821 252.611 347.851 252.4 347.147 252.242C346.795 252.163 346.521 252.1 346.32 252.052C346.163 252.014 346.084 251.994 346.059 251.987C346.048 251.984 346.048 251.984 346.056 251.987ZM425.456 251.875H422.446L421.037 254.536C419.728 257.008 416.301 261.882 410.4 269.425L410.375 269.457L410.351 269.49C405.571 275.809 402.016 281.304 399.863 285.906C397.381 291.093 396.313 297.579 396.313 305.047C396.313 311.205 397.143 317.873 398.748 325.023C399.187 327.137 399.517 328.722 399.738 329.774C399.849 330.301 399.935 330.704 399.994 330.974C400.022 331.105 400.049 331.226 400.07 331.32C400.078 331.353 400.098 331.442 400.124 331.538C400.131 331.566 400.144 331.614 400.161 331.673C400.172 331.71 400.212 331.848 400.276 332.019C400.302 332.09 400.382 332.301 400.513 332.556C400.575 332.678 400.712 332.936 400.931 333.233L400.936 333.241C401.07 333.423 401.666 334.238 402.791 334.78C402.794 334.781 402.798 334.783 402.801 334.784C406.543 336.645 410.073 338.132 413.371 339.187L413.047 339.525L399.939 353.236L398.401 354.845L398.567 357.063L399.977 375.985L400.112 377.797L401.38 379.1C409.191 387.127 420.297 390.759 433.835 390.759C438.13 390.759 442.119 390.237 445.186 388.641L445.239 388.613L445.291 388.585C446.687 387.816 448.259 386.511 449.845 385.058C451.523 383.52 453.538 381.512 455.872 379.064L455.893 379.042L455.913 379.02C460.528 374.065 464.279 368.938 467.111 363.63C469.912 358.464 471.838 353.798 472.528 349.782C473.196 346.027 473.673 340.198 474.005 332.494L475.986 306.852C475.986 306.845 475.987 306.837 475.987 306.83C476.656 299.151 477 292.783 477 287.771C477 276.003 472.841 266.538 463.993 260.362L463.979 260.352L463.964 260.342C455.326 254.403 442.162 251.875 425.456 251.875ZM399.963 330.267C399.963 330.255 399.963 330.235 399.963 330.208V330.275L399.963 330.267ZM439.102 352.075C429.665 350.044 424.088 346.09 421.227 340.911L423.879 341.244L425.488 338.17C425.904 337.377 427.237 335.677 430.125 332.913C433.229 330.044 436.05 327.232 438.579 324.477C438.646 327.346 438.717 330.678 438.792 334.479C438.792 334.482 438.792 334.485 438.792 334.487L439.102 352.075ZM433.314 299.452C433.019 299.967 432.73 300.466 432.447 300.95V283.1C434.603 284.33 436.956 285.956 439.511 288.028C439.28 288.502 439.011 289.04 438.7 289.647C437.436 292.11 435.646 295.371 433.314 299.452ZM350.973 299.517C350.787 299.804 350.602 300.089 350.417 300.373L349.662 285.525C352.92 286.734 355.245 288.144 356.842 289.64C355.146 292.74 353.191 296.031 350.973 299.517Z" stroke="#D14D72" stroke-width="10"/>
</g>
<defs>
<filter id="filter0_d_202_3" x="0" y="0" width="621" height="626" filterUnits="userSpaceOnUse" color-interpolation-filters="sRGB">
<feFlood flood-opacity="0" result="BackgroundImageFix"/>
<feColorMatrix in="SourceAlpha" type="matrix" values="0 0 0 0 0 0 0 0 0 0 0 0 0 0 0 0 0 0 127 0" result="hardAlpha"/>
<feOffset dy="4"/>
<feGaussianBlur stdDeviation="10"/>
<feComposite in2="hardAlpha" operator="out"/>
<feColorMatrix type="matrix" values="0 0 0 0 0 0 0 0 0 0 0 0 0 0 0 0 0 0 0.25 0"/>
<feBlend mode="normal" in2="BackgroundImageFix" result="effect1_dropShadow_202_3"/>
<feBlend mode="normal" in="SourceGraphic" in2="effect1_dropShadow_202_3" result="shape"/>
</filter>
<filter id="filter1_d_202_3" x="224.047" y="347.375" width="220.859" height="77" filterUnits="userSpaceOnUse" color-interpolation-filters="sRGB">
<feFlood flood-opacity="0" result="BackgroundImageFix"/>
<feColorMatrix in="SourceAlpha" type="matrix" values="0 0 0 0 0 0 0 0 0 0 0 0 0 0 0 0 0 0 127 0" result="hardAlpha"/>
<feOffset dy="4"/>
<feGaussianBlur stdDeviation="2"/>
<feComposite in2="hardAlpha" operator="out"/>
<feColorMatrix type="matrix" values="0 0 0 0 0 0 0 0 0 0 0 0 0 0 0 0 0 0 0.04 0"/>
<feBlend mode="normal" in2="BackgroundImageFix" result="effect1_dropShadow_202_3"/>
<feBlend mode="normal" in="SourceGraphic" in2="effect1_dropShadow_202_3" result="shape"/>
</filter>
<filter id="filter2_d_202_3" x="89.1807" y="200.977" width="396.819" height="232.17" filterUnits="userSpaceOnUse" color-interpolation-filters="sRGB">
<feFlood flood-opacity="0" result="BackgroundImageFix"/>
<feColorMatrix in="SourceAlpha" type="matrix" values="0 0 0 0 0 0 0 0 0 0 0 0 0 0 0 0 0 0 127 0" result="hardAlpha"/>
<feOffset dy="4"/>
<feGaussianBlur stdDeviation="2"/>
<feComposite in2="hardAlpha" operator="out"/>
<feColorMatrix type="matrix" values="0 0 0 0 0 0 0 0 0 0 0 0 0 0 0 0 0 0 0.49 0"/>
<feBlend mode="normal" in2="BackgroundImageFix" result="effect1_dropShadow_202_3"/>
<feBlend mode="normal" in="SourceGraphic" in2="effect1_dropShadow_202_3" result="shape"/>
</filter>
</defs>
</svg>
