<svg width="399" height="234" viewBox="0 0 399 234" fill="none" xmlns="http://www.w3.org/2000/svg">
<g filter="url(#filter0_d_112_4)">
<path d="M206.969 188.953H211.282C213.375 189.172 214.422 189.812 214.422 190.875C214.422 191.562 213.657 191.906 212.125 191.906L209.079 191.719L204.672 191.766L195.11 203.906C188.641 211.969 185.063 216 184.375 216C183.782 216 183.235 215.547 182.735 214.641C182.266 213.859 182.032 213.141 182.032 212.484C182.032 211.516 187.344 204.609 197.969 191.766H194.313C189.219 191.797 181.641 192.094 171.579 192.656L155.735 206.156L149.594 211.641C146.282 214.516 144.266 215.953 143.547 215.953C142.672 215.953 142.235 215.5 142.235 214.594C142.235 213.469 146.75 209.156 155.782 201.656L166.516 192.75C152.172 193.406 144.766 194.109 144.297 194.859V194.906C144.297 195.5 146.532 195.797 151 195.797L157.282 195.703C158.125 195.672 158.547 195.859 158.547 196.266C158.547 197.141 155.141 197.578 148.329 197.578C142.516 197.578 139.61 196.844 139.61 195.375C139.61 193.5 141.329 192.219 144.766 191.531C145.735 191.312 148.141 191.078 151.985 190.828L170.266 189.609C177.641 183.516 188.188 175.609 201.907 165.891C219.375 153.547 229.797 147.375 233.172 147.375C234.86 147.375 235.704 148.469 235.704 150.656C235.704 152.5 233.5 156.156 229.094 161.625L206.969 188.953ZM200.266 188.953L222.25 162.281L226.329 157.312C228.079 155.094 229.235 153.391 229.797 152.203V152.016C229.797 151.672 229.641 151.5 229.329 151.5C227.86 151.5 218.579 157.75 201.485 170.25L175.75 189.375L200.266 188.953ZM219.813 202.922L210.016 210.609C204.954 214.203 201.094 216 198.438 216C198.063 216 197.875 215.812 197.875 215.438C197.875 214.875 198.25 214.516 199 214.359C201.907 213.797 205.844 211.625 210.813 207.844L223.844 197.438C230.969 191.594 236.454 188.672 240.297 188.672C242.329 188.672 243.344 189.453 243.344 191.016C244.032 191.016 244.375 191.328 244.375 191.953C244.375 192.484 243.985 192.766 243.204 192.797C242.579 195.016 241.407 197.219 239.688 199.406C237.625 202.031 235.641 203.344 233.735 203.344C232.61 203.344 232.047 202.828 232.047 201.797C232.047 200.328 233.266 198.422 235.704 196.078C237.86 193.984 239.797 192.578 241.516 191.859L241.61 191.344C241.61 190.906 241.391 190.688 240.954 190.688C238.922 190.688 235.188 193.484 229.75 199.078C224.344 204.672 221.641 208.578 221.641 210.797C221.641 212.203 222.235 213.188 223.422 213.75C224.016 214.031 225.125 214.25 226.75 214.406C227.938 214.531 228.532 214.797 228.532 215.203C228.532 215.828 227.438 216.141 225.25 216.141C220.375 216.141 217.938 213.922 217.938 209.484C217.938 207.797 218.563 205.609 219.813 202.922ZM240.719 193.922C239.813 194.328 238.532 195.359 236.875 197.016C235.094 198.766 234.204 199.984 234.204 200.672L234.579 201.047C235.422 201.047 236.594 200.078 238.094 198.141C239.375 196.484 240.25 195.078 240.719 193.922ZM249.25 202.922L239.454 210.609C234.391 214.203 230.532 216 227.875 216C227.5 216 227.313 215.812 227.313 215.438C227.313 214.875 227.688 214.516 228.438 214.359C231.344 213.797 235.282 211.625 240.25 207.844L253.282 197.438C260.407 191.594 265.891 188.672 269.735 188.672C271.766 188.672 272.782 189.453 272.782 191.016C273.469 191.016 273.813 191.328 273.813 191.953C273.813 192.484 273.422 192.766 272.641 192.797C272.016 195.016 270.844 197.219 269.125 199.406C267.063 202.031 265.079 203.344 263.172 203.344C262.047 203.344 261.485 202.828 261.485 201.797C261.485 200.328 262.704 198.422 265.141 196.078C267.297 193.984 269.235 192.578 270.954 191.859L271.047 191.344C271.047 190.906 270.829 190.688 270.391 190.688C268.36 190.688 264.625 193.484 259.188 199.078C253.782 204.672 251.079 208.578 251.079 210.797C251.079 212.203 251.672 213.188 252.86 213.75C253.454 214.031 254.563 214.25 256.188 214.406C257.375 214.531 257.969 214.797 257.969 215.203C257.969 215.828 256.875 216.141 254.688 216.141C249.813 216.141 247.375 213.922 247.375 209.484C247.375 207.797 248 205.609 249.25 202.922ZM270.157 193.922C269.25 194.328 267.969 195.359 266.313 197.016C264.532 198.766 263.641 199.984 263.641 200.672L264.016 201.047C264.86 201.047 266.032 200.078 267.532 198.141C268.813 196.484 269.688 195.078 270.157 193.922ZM274.797 208.406C273.235 208.781 270.297 210.219 265.985 212.719C262.172 214.906 259.282 216 257.313 216C256.938 216 256.75 215.797 256.75 215.391C256.75 214.828 257.157 214.484 257.969 214.359C259.875 214.047 262.563 212.875 266.032 210.844C269.844 208.656 272.954 207.281 275.36 206.719C276.797 203.25 279.766 199.609 284.266 195.797C289.047 191.703 293.125 189.656 296.5 189.656C299 189.656 300.25 190.719 300.25 192.844C300.25 195.625 297.61 198.656 292.329 201.938C288.454 204.375 284.485 206.281 280.422 207.656C279.985 208.656 279.766 209.703 279.766 210.797C279.766 212.422 280.329 213.484 281.454 213.984C282.016 214.203 283.079 214.344 284.641 214.406C285.766 214.438 286.329 214.703 286.329 215.203C286.329 215.984 284.407 216.375 280.563 216.375C276.5 216.375 274.469 214.609 274.469 211.078C274.469 210.266 274.579 209.375 274.797 208.406ZM280.985 205.781C283.86 204.375 286.891 202.469 290.079 200.062C294.329 196.906 296.454 194.406 296.454 192.562C296.454 191.812 296.11 191.438 295.422 191.438C293.391 191.438 290.625 193.312 287.125 197.062C284 200.469 281.954 203.375 280.985 205.781ZM300.438 207.984C293.938 213.328 289 216 285.625 216C285.25 216 285.063 215.812 285.063 215.438C285.063 214.875 285.375 214.516 286 214.359C287.157 214.078 288.938 213.453 291.344 212.484C293.594 211.266 299.313 206.828 308.5 199.172C317.219 191.922 321.688 188.297 321.907 188.297C322.625 188.297 323.329 188.609 324.016 189.234C324.735 189.859 325.094 190.531 325.094 191.25C325.094 193.531 323.313 197.547 319.75 203.297C316.657 208.266 313.954 211.984 311.641 214.453C312.985 214.453 313.657 214.703 313.657 215.203C313.657 215.828 313 216.141 311.688 216.141C311.344 216.141 310.829 216.078 310.141 215.953C309.485 215.828 308.985 215.766 308.641 215.766C308.391 215.766 308.016 215.812 307.516 215.906C307.016 216 306.641 216.047 306.391 216.047C302.422 216.047 300.438 213.359 300.438 207.984ZM307.891 212.062C310.079 210.25 312.485 207.125 315.11 202.688C317.547 198.562 319.25 194.922 320.219 191.766L303.438 205.406C304.594 205.594 305.563 206.5 306.344 208.125L307.891 212.062ZM306.532 213.516L305.219 209.812C304.532 208 303.86 207.094 303.204 207.094C302.516 207.094 302.172 207.625 302.172 208.688C302.172 209.75 302.485 210.844 303.11 211.969C303.829 213.25 304.672 213.891 305.641 213.891C306.016 213.891 306.313 213.766 306.532 213.516ZM327.813 207.984C321.313 213.328 316.375 216 313 216C312.625 216 312.438 215.812 312.438 215.438C312.438 214.875 312.75 214.516 313.375 214.359C314.532 214.078 316.313 213.453 318.719 212.484C320.969 211.266 326.688 206.828 335.875 199.172C344.594 191.922 349.063 188.297 349.282 188.297C350 188.297 350.704 188.609 351.391 189.234C352.11 189.859 352.469 190.531 352.469 191.25C352.469 193.531 350.688 197.547 347.125 203.297C344.032 208.266 341.329 211.984 339.016 214.453C340.36 214.453 341.032 214.703 341.032 215.203C341.032 215.828 340.375 216.141 339.063 216.141C338.719 216.141 338.204 216.078 337.516 215.953C336.86 215.828 336.36 215.766 336.016 215.766C335.766 215.766 335.391 215.812 334.891 215.906C334.391 216 334.016 216.047 333.766 216.047C329.797 216.047 327.813 213.359 327.813 207.984ZM335.266 212.062C337.454 210.25 339.86 207.125 342.485 202.688C344.922 198.562 346.625 194.922 347.594 191.766L330.813 205.406C331.969 205.594 332.938 206.5 333.719 208.125L335.266 212.062ZM333.907 213.516L332.594 209.812C331.907 208 331.235 207.094 330.579 207.094C329.891 207.094 329.547 207.625 329.547 208.688C329.547 209.75 329.86 210.844 330.485 211.969C331.204 213.25 332.047 213.891 333.016 213.891C333.391 213.891 333.688 213.766 333.907 213.516Z" fill="#D14D72"/>
<path d="M206.969 188.953L205.637 187.875C205.221 188.388 205.138 189.095 205.422 189.691C205.707 190.287 206.308 190.667 206.969 190.667V188.953ZM211.282 188.953L211.46 187.248C211.401 187.242 211.341 187.239 211.282 187.239V188.953ZM212.125 191.906L212.02 193.617C212.055 193.619 212.09 193.62 212.125 193.62V191.906ZM209.079 191.719L209.184 190.008C209.143 190.005 209.101 190.004 209.06 190.005L209.079 191.719ZM204.672 191.766L204.654 190.052C204.135 190.057 203.647 190.297 203.326 190.705L204.672 191.766ZM195.11 203.906L196.447 204.979C196.45 204.975 196.453 204.971 196.456 204.967L195.11 203.906ZM182.735 214.641L184.236 213.813C184.226 213.794 184.215 213.777 184.205 213.759L182.735 214.641ZM197.969 191.766L199.29 192.858C199.713 192.347 199.803 191.637 199.52 191.036C199.237 190.435 198.633 190.052 197.969 190.052V191.766ZM194.313 191.766V190.052L194.302 190.052L194.313 191.766ZM171.579 192.656L171.483 190.945C171.109 190.966 170.752 191.109 170.467 191.352L171.579 192.656ZM155.735 206.156L154.623 204.852C154.613 204.86 154.603 204.869 154.593 204.878L155.735 206.156ZM149.594 211.641L150.718 212.935C150.724 212.93 150.73 212.924 150.736 212.919L149.594 211.641ZM155.782 201.656L154.687 200.337L154.687 200.338L155.782 201.656ZM166.516 192.75L167.61 194.069C168.177 193.599 168.38 192.819 168.115 192.132C167.849 191.444 167.174 191.004 166.438 191.038L166.516 192.75ZM144.297 194.859L142.844 193.951C142.674 194.223 142.583 194.538 142.583 194.859H144.297ZM151 195.797V197.511C151.009 197.511 151.017 197.511 151.026 197.511L151 195.797ZM157.282 195.703L157.307 197.417C157.32 197.417 157.332 197.416 157.345 197.416L157.282 195.703ZM144.766 191.531L145.102 193.212C145.116 193.209 145.13 193.206 145.144 193.203L144.766 191.531ZM151.985 190.828L152.096 192.539L152.099 192.538L151.985 190.828ZM170.266 189.609L170.38 191.32C170.739 191.296 171.081 191.16 171.358 190.931L170.266 189.609ZM201.907 165.891L200.918 164.491L200.916 164.492L201.907 165.891ZM229.094 161.625L230.426 162.704L230.429 162.7L229.094 161.625ZM200.266 188.953L200.296 190.667C200.797 190.658 201.27 190.43 201.589 190.043L200.266 188.953ZM222.25 162.281L223.573 163.371L223.575 163.369L222.25 162.281ZM226.329 157.312L227.653 158.4C227.66 158.391 227.667 158.383 227.674 158.374L226.329 157.312ZM229.797 152.203L231.346 152.937C231.455 152.708 231.511 152.457 231.511 152.203H229.797ZM201.485 170.25L200.473 168.866L200.462 168.874L201.485 170.25ZM175.75 189.375L174.728 187.999C174.13 188.443 173.888 189.223 174.128 189.927C174.368 190.632 175.035 191.102 175.78 191.089L175.75 189.375ZM206.969 190.667H211.282V187.239H206.969V190.667ZM211.104 190.658C212.053 190.757 212.54 190.936 212.742 191.06C212.825 191.11 212.805 191.119 212.766 191.055C212.72 190.981 212.708 190.905 212.708 190.875H216.136C216.136 189.645 215.471 188.71 214.532 188.136C213.687 187.619 212.604 187.368 211.46 187.248L211.104 190.658ZM212.708 190.875C212.708 190.706 212.763 190.492 212.903 190.304C212.964 190.221 213.027 190.165 213.072 190.131C213.117 190.098 213.146 190.085 213.146 190.085C213.146 190.085 213.126 190.094 213.079 190.106C213.032 190.119 212.966 190.133 212.877 190.147C212.695 190.174 212.448 190.192 212.125 190.192V193.62C212.966 193.62 213.833 193.534 214.55 193.212C214.929 193.042 215.339 192.773 215.655 192.348C215.986 191.902 216.136 191.387 216.136 190.875H212.708ZM212.231 190.195L209.184 190.008L208.973 193.43L212.02 193.617L212.231 190.195ZM209.06 190.005L204.654 190.052L204.691 193.48L209.097 193.433L209.06 190.005ZM203.326 190.705L193.763 202.846L196.456 204.967L206.019 192.826L203.326 190.705ZM193.773 202.834C190.543 206.859 188.053 209.856 186.293 211.839C185.409 212.835 184.734 213.546 184.256 213.998C184.013 214.228 183.856 214.356 183.772 214.417C183.729 214.447 183.741 214.434 183.796 214.408C183.823 214.395 184.042 214.286 184.375 214.286V217.714C184.795 217.714 185.123 217.573 185.28 217.498C185.467 217.408 185.632 217.301 185.765 217.206C186.034 217.014 186.32 216.764 186.61 216.49C187.198 215.934 187.951 215.134 188.856 214.114C190.674 212.066 193.207 209.016 196.447 204.979L193.773 202.834ZM184.375 214.286C184.451 214.286 184.52 214.302 184.572 214.322C184.62 214.341 184.633 214.357 184.613 214.34C184.563 214.298 184.425 214.156 184.236 213.813L181.234 215.469C181.806 216.505 182.795 217.714 184.375 217.714V214.286ZM184.205 213.759C183.836 213.145 183.746 212.732 183.746 212.484H180.318C180.318 213.549 180.696 214.574 181.265 215.522L184.205 213.759ZM183.746 212.484C183.746 212.75 183.671 212.907 183.692 212.853C183.698 212.838 183.724 212.778 183.788 212.659C183.916 212.423 184.129 212.076 184.449 211.603C185.083 210.663 186.053 209.341 187.375 207.623C190.012 204.195 193.981 199.276 199.29 192.858L196.648 190.673C191.332 197.099 187.333 202.055 184.657 205.533C183.322 207.269 182.301 208.657 181.607 209.686C181.262 210.197 180.978 210.649 180.773 211.027C180.672 211.214 180.573 211.414 180.496 211.613C180.434 211.773 180.318 212.098 180.318 212.484H183.746ZM197.969 190.052H194.313V193.48H197.969V190.052ZM194.302 190.052C189.165 190.083 181.552 190.382 171.483 190.945L171.674 194.368C181.73 193.805 189.274 193.511 194.323 193.48L194.302 190.052ZM170.467 191.352L154.623 204.852L156.846 207.461L172.69 193.961L170.467 191.352ZM154.593 204.878L148.452 210.362L150.736 212.919L156.877 207.435L154.593 204.878ZM148.471 210.346C146.829 211.771 145.545 212.808 144.603 213.48C144.129 213.817 143.777 214.038 143.532 214.166C143.215 214.333 143.276 214.239 143.547 214.239V217.667C144.178 217.667 144.76 217.394 145.127 217.201C145.566 216.97 146.059 216.651 146.593 216.27C147.667 215.505 149.046 214.386 150.718 212.935L148.471 210.346ZM143.547 214.239C143.472 214.239 143.477 214.229 143.532 214.248C143.597 214.27 143.699 214.323 143.796 214.423C143.999 214.633 143.949 214.797 143.949 214.594H140.521C140.521 215.296 140.69 216.141 141.33 216.804C141.981 217.478 142.83 217.667 143.547 217.667V214.239ZM143.949 214.594C143.949 214.935 143.813 215.08 143.924 214.891C144 214.762 144.147 214.552 144.4 214.247C144.902 213.643 145.694 212.817 146.805 211.755C149.02 209.64 152.37 206.717 156.877 202.975L154.687 200.338C150.162 204.095 146.739 207.078 144.438 209.276C143.291 210.371 142.39 211.303 141.763 212.057C141.451 212.432 141.175 212.802 140.969 213.154C140.797 213.446 140.521 213.971 140.521 214.594H143.949ZM156.876 202.975L167.61 194.069L165.422 191.431L154.687 200.337L156.876 202.975ZM166.438 191.038C159.258 191.366 153.787 191.708 150.042 192.063C148.175 192.24 146.698 192.425 145.639 192.62C145.115 192.717 144.641 192.825 144.254 192.955C144.062 193.02 143.843 193.105 143.632 193.222C143.456 193.32 143.101 193.54 142.844 193.951L145.751 195.768C145.552 196.085 145.31 196.212 145.301 196.217C145.257 196.241 145.26 196.233 145.343 196.205C145.507 196.151 145.8 196.076 146.261 195.991C147.17 195.823 148.529 195.65 150.366 195.476C154.026 195.128 159.43 194.79 166.594 194.462L166.438 191.038ZM142.583 194.859V194.906H146.011V194.859H142.583ZM142.583 194.906C142.583 195.583 142.921 196.079 143.235 196.37C143.523 196.638 143.845 196.794 144.082 196.888C144.561 197.079 145.148 197.194 145.747 197.273C146.981 197.437 148.749 197.511 151 197.511V194.083C148.783 194.083 147.2 194.008 146.199 193.875C145.681 193.806 145.43 193.735 145.351 193.704C145.308 193.686 145.421 193.722 145.569 193.86C145.743 194.021 146.011 194.378 146.011 194.906H142.583ZM151.026 197.511L157.307 197.417L157.256 193.989L150.975 194.083L151.026 197.511ZM157.345 197.416C157.492 197.411 157.581 197.416 157.625 197.422C157.675 197.428 157.63 197.429 157.535 197.387C157.433 197.342 157.238 197.23 157.071 196.995C156.894 196.746 156.833 196.477 156.833 196.266H160.261C160.261 195.851 160.148 195.407 159.865 195.009C159.593 194.626 159.239 194.393 158.927 194.254C158.353 193.999 157.719 193.972 157.218 193.99L157.345 197.416ZM156.833 196.266C156.833 195.75 157.105 195.422 157.242 195.299C157.355 195.197 157.412 195.194 157.292 195.24C157.062 195.329 156.587 195.446 155.774 195.55C154.184 195.754 151.718 195.864 148.329 195.864V199.292C151.752 199.292 154.395 199.183 156.211 198.95C157.102 198.836 157.904 198.679 158.525 198.439C158.831 198.321 159.207 198.141 159.534 197.848C159.883 197.533 160.261 197 160.261 196.266H156.833ZM148.329 195.864C145.458 195.864 143.451 195.679 142.209 195.366C141.58 195.207 141.289 195.048 141.19 194.973C141.14 194.935 141.324 195.077 141.324 195.375H137.896C137.896 196.408 138.443 197.192 139.119 197.705C139.747 198.18 140.545 198.481 141.37 198.689C143.034 199.11 145.387 199.292 148.329 199.292V195.864ZM141.324 195.375C141.324 195.062 141.427 194.752 141.923 194.382C142.489 193.96 143.493 193.534 145.102 193.212L144.43 189.851C142.601 190.216 141.027 190.774 139.874 191.634C138.652 192.545 137.896 193.813 137.896 195.375H141.324ZM145.144 193.203C145.952 193.021 148.204 192.792 152.096 192.539L151.874 189.118C148.078 189.365 145.518 189.604 144.388 189.859L145.144 193.203ZM152.099 192.538L170.38 191.32L170.152 187.899L151.871 189.118L152.099 192.538ZM171.358 190.931C178.685 184.877 189.192 176.999 202.897 167.289L200.916 164.492C187.184 174.22 176.597 182.155 169.174 188.288L171.358 190.931ZM202.896 167.29C211.616 161.128 218.546 156.53 223.698 153.479C226.276 151.952 228.379 150.831 230.02 150.097C231.731 149.331 232.724 149.089 233.172 149.089V145.661C231.933 145.661 230.358 146.19 228.62 146.968C226.811 147.777 224.584 148.97 221.951 150.529C216.682 153.65 209.666 158.309 200.918 164.491L202.896 167.29ZM233.172 149.089C233.616 149.089 233.689 149.21 233.714 149.242C233.804 149.359 233.99 149.735 233.99 150.656H237.418C237.418 149.39 237.182 148.125 236.428 147.148C235.609 146.087 234.416 145.661 233.172 145.661V149.089ZM233.99 150.656C233.99 150.807 233.937 151.149 233.699 151.742C233.47 152.315 233.105 153.03 232.583 153.897C231.539 155.63 229.941 157.843 227.759 160.55L230.429 162.7C232.654 159.939 234.36 157.589 235.519 155.666C236.099 154.704 236.561 153.818 236.882 153.016C237.195 152.234 237.418 151.428 237.418 150.656H233.99ZM227.762 160.546L205.637 187.875L208.301 190.032L230.426 162.704L227.762 160.546ZM201.589 190.043L223.573 163.371L220.928 161.191L198.943 187.863L201.589 190.043ZM223.575 163.369L227.653 158.4L225.004 156.225L220.926 161.194L223.575 163.369ZM227.674 158.374C229.435 156.142 230.695 154.311 231.346 152.937L228.248 151.469C227.774 152.47 226.722 154.045 224.983 156.251L227.674 158.374ZM231.511 152.203V152.016H228.083V152.203H231.511ZM231.511 152.016C231.511 151.618 231.424 151 230.948 150.476C230.444 149.921 229.793 149.786 229.329 149.786V153.214C229.176 153.214 228.76 153.165 228.412 152.782C228.092 152.43 228.083 152.07 228.083 152.016H231.511ZM229.329 149.786C228.975 149.786 228.655 149.872 228.44 149.941C228.2 150.017 227.95 150.12 227.7 150.234C227.199 150.463 226.594 150.787 225.901 151.19C224.508 152 222.64 153.196 220.309 154.766C215.64 157.91 209.025 162.613 200.473 168.866L202.497 171.634C211.038 165.387 217.611 160.715 222.223 157.609C224.533 156.054 226.328 154.907 227.624 154.154C228.274 153.776 228.769 153.514 229.123 153.352C229.301 153.271 229.417 153.227 229.483 153.206C229.573 153.177 229.498 153.214 229.329 153.214V149.786ZM200.462 168.874L174.728 187.999L176.773 190.751L202.507 171.626L200.462 168.874ZM175.78 191.089L200.296 190.667L200.237 187.239L175.721 187.661L175.78 191.089ZM219.813 202.922L221.367 203.645C221.701 202.926 221.499 202.071 220.878 201.579C220.257 201.086 219.379 201.084 218.755 201.573L219.813 202.922ZM210.016 210.609L211.008 212.007C211.031 211.991 211.053 211.975 211.074 211.958L210.016 210.609ZM199 214.359L198.675 212.677C198.667 212.678 198.659 212.68 198.651 212.681L199 214.359ZM210.813 207.844L211.851 209.208C211.861 209.2 211.872 209.191 211.882 209.183L210.813 207.844ZM223.844 197.438L224.914 198.777C224.92 198.772 224.925 198.768 224.931 198.763L223.844 197.438ZM243.344 191.016H241.63C241.63 191.962 242.398 192.73 243.344 192.73V191.016ZM243.204 192.797L243.135 191.084C242.393 191.114 241.755 191.618 241.554 192.332L243.204 192.797ZM235.704 196.078L236.892 197.314L236.898 197.308L235.704 196.078ZM241.516 191.859L242.177 193.441C242.713 193.217 243.099 192.737 243.202 192.166L241.516 191.859ZM241.61 191.344L243.296 191.65C243.315 191.549 243.324 191.447 243.324 191.344H241.61ZM229.75 199.078L228.521 197.883L228.518 197.887L229.75 199.078ZM226.75 214.406L226.93 212.702C226.925 212.701 226.92 212.701 226.914 212.7L226.75 214.406ZM240.719 193.922L242.308 194.566C242.571 193.917 242.413 193.174 241.909 192.688C241.405 192.202 240.657 192.072 240.018 192.358L240.719 193.922ZM236.875 197.016L238.077 198.238C238.08 198.235 238.084 198.231 238.087 198.228L236.875 197.016ZM234.204 200.672H232.49C232.49 201.126 232.67 201.562 232.992 201.884L234.204 200.672ZM234.579 201.047L233.367 202.259C233.688 202.58 234.124 202.761 234.579 202.761V201.047ZM238.094 198.141L239.449 199.19L239.45 199.189L238.094 198.141ZM218.755 201.573L208.958 209.261L211.074 211.958L220.871 204.27L218.755 201.573ZM209.024 209.212C206.543 210.973 204.405 212.259 202.601 213.099C200.777 213.948 199.41 214.286 198.438 214.286V217.714C200.122 217.714 202.013 217.154 204.048 216.206C206.104 215.249 208.427 213.839 211.008 212.007L209.024 209.212ZM198.438 214.286C198.515 214.286 198.887 214.306 199.228 214.647C199.569 214.988 199.589 215.361 199.589 215.438H196.161C196.161 215.889 196.275 216.543 196.804 217.071C197.333 217.6 197.986 217.714 198.438 217.714V214.286ZM199.589 215.438C199.589 215.49 199.58 215.585 199.533 215.7C199.485 215.817 199.415 215.914 199.343 215.984C199.213 216.108 199.149 216.079 199.35 216.037L198.651 212.681C198.101 212.796 197.476 213.025 196.971 213.509C196.416 214.04 196.161 214.732 196.161 215.438H199.589ZM199.326 216.042C202.649 215.399 206.855 213.009 211.851 209.208L209.775 206.48C204.833 210.241 201.165 212.195 198.675 212.677L199.326 216.042ZM211.882 209.183L224.914 198.777L222.775 196.098L209.743 206.504L211.882 209.183ZM224.931 198.763C228.444 195.882 231.5 193.765 234.107 192.376C236.738 190.974 238.779 190.386 240.297 190.386V186.958C237.972 186.958 235.349 187.83 232.495 189.351C229.618 190.883 226.369 193.15 222.757 196.112L224.931 198.763ZM240.297 190.386C241.141 190.386 241.459 190.556 241.537 190.616C241.562 190.635 241.57 190.646 241.581 190.672C241.596 190.707 241.63 190.808 241.63 191.016H245.058C245.058 189.832 244.65 188.686 243.627 187.899C242.69 187.178 241.485 186.958 240.297 186.958V190.386ZM243.344 192.73C243.462 192.73 243.23 192.76 242.965 192.518C242.831 192.397 242.747 192.256 242.702 192.133C242.681 192.076 242.671 192.03 242.666 191.999C242.664 191.984 242.663 191.973 242.662 191.965C242.661 191.957 242.661 191.953 242.661 191.953H246.089C246.089 191.332 245.911 190.564 245.271 189.982C244.661 189.428 243.914 189.302 243.344 189.302V192.73ZM242.661 191.953C242.661 191.874 242.677 191.73 242.757 191.562C242.841 191.388 242.962 191.257 243.081 191.172C243.19 191.093 243.27 191.072 243.275 191.07C243.279 191.069 243.238 191.08 243.135 191.084L243.272 194.51C243.808 194.488 244.494 194.378 245.084 193.953C245.778 193.454 246.089 192.704 246.089 191.953H242.661ZM241.554 192.332C241.001 194.295 239.948 196.301 238.34 198.347L241.036 200.465C242.865 198.137 244.156 195.736 244.853 193.262L241.554 192.332ZM238.34 198.347C236.368 200.857 234.826 201.63 233.735 201.63V205.058C236.456 205.058 238.883 203.205 241.036 200.465L238.34 198.347ZM233.735 201.63C233.579 201.63 233.508 201.611 233.497 201.608C233.493 201.606 233.552 201.625 233.627 201.694C233.663 201.726 233.694 201.763 233.719 201.801C233.743 201.838 233.757 201.869 233.764 201.888C233.776 201.923 233.761 201.903 233.761 201.797H230.333C230.333 202.617 230.564 203.536 231.311 204.221C232.03 204.88 232.943 205.058 233.735 205.058V201.63ZM233.761 201.797C233.761 201.522 233.884 201.004 234.405 200.189C234.916 199.391 235.727 198.433 236.892 197.314L234.516 194.843C233.242 196.067 232.226 197.234 231.517 198.342C230.82 199.433 230.333 200.603 230.333 201.797H233.761ZM236.898 197.308C238.983 195.283 240.741 194.041 242.177 193.441L240.855 190.278C238.854 191.115 236.737 192.686 234.509 194.848L236.898 197.308ZM243.202 192.166L243.296 191.65L239.923 191.037L239.83 191.553L243.202 192.166ZM243.324 191.344C243.324 190.861 243.202 190.184 242.658 189.64C242.114 189.095 241.436 188.973 240.954 188.973V192.402C240.908 192.402 240.559 192.389 240.234 192.064C239.908 191.738 239.896 191.389 239.896 191.344H243.324ZM240.954 188.973C240.08 188.973 239.196 189.266 238.363 189.67C237.51 190.083 236.587 190.675 235.602 191.413C233.631 192.889 231.267 195.059 228.521 197.883L230.979 200.273C233.671 197.504 235.893 195.478 237.657 194.157C238.539 193.497 239.27 193.04 239.859 192.754C240.467 192.459 240.812 192.402 240.954 192.402V188.973ZM228.518 197.887C225.785 200.714 223.686 203.165 222.259 205.228C220.89 207.205 219.927 209.118 219.927 210.797H223.355C223.355 210.257 223.743 209.107 225.078 207.178C226.354 205.335 228.309 203.036 230.983 200.269L228.518 197.887ZM219.927 210.797C219.927 211.742 220.128 212.662 220.619 213.475C221.114 214.296 221.835 214.895 222.689 215.299L224.156 212.201C223.822 212.043 223.653 211.868 223.554 211.705C223.451 211.533 223.355 211.258 223.355 210.797H219.927ZM222.689 215.299C223.584 215.723 224.972 215.957 226.586 216.112L226.914 212.7C225.279 212.543 224.448 212.339 224.156 212.201L222.689 215.299ZM226.571 216.111C226.823 216.137 227.017 216.169 227.163 216.201C227.234 216.216 227.288 216.231 227.328 216.243C227.347 216.249 227.361 216.254 227.371 216.258C227.376 216.26 227.38 216.261 227.383 216.262C227.385 216.263 227.386 216.264 227.386 216.264C227.386 216.264 227.385 216.263 227.382 216.262C227.38 216.261 227.376 216.259 227.37 216.256C227.36 216.25 227.343 216.24 227.322 216.226C227.28 216.198 227.211 216.145 227.136 216.06C227.059 215.972 226.975 215.851 226.912 215.694C226.849 215.534 226.818 215.367 226.818 215.203H230.246C230.246 213.967 229.289 213.36 228.786 213.135C228.24 212.89 227.58 212.77 226.93 212.702L226.571 216.111ZM226.818 215.203C226.818 214.78 227.032 214.465 227.211 214.312C227.339 214.202 227.399 214.213 227.24 214.258C226.929 214.347 226.303 214.427 225.25 214.427V217.855C226.385 217.855 227.4 217.778 228.182 217.554C228.57 217.443 229.041 217.259 229.442 216.915C229.894 216.527 230.246 215.939 230.246 215.203H226.818ZM225.25 214.427C223.039 214.427 221.701 213.92 220.92 213.209C220.169 212.526 219.652 211.395 219.652 209.484H216.224C216.224 212.011 216.925 214.208 218.612 215.744C220.269 217.252 222.586 217.855 225.25 217.855V214.427ZM219.652 209.484C219.652 208.169 220.154 206.252 221.367 203.645L218.259 202.199C216.971 204.967 216.224 207.425 216.224 209.484H219.652ZM240.018 192.358C238.796 192.906 237.321 194.147 235.663 195.804L238.087 198.228C239.743 196.572 240.83 195.751 241.42 195.486L240.018 192.358ZM235.674 195.793C234.754 196.697 234.012 197.514 233.488 198.231C233.225 198.59 232.991 198.959 232.818 199.331C232.651 199.688 232.49 200.152 232.49 200.672H235.918C235.918 200.848 235.867 200.902 235.923 200.782C235.972 200.677 236.073 200.504 236.255 200.253C236.622 199.752 237.215 199.084 238.077 198.238L235.674 195.793ZM232.992 201.884L233.367 202.259L235.791 199.835L235.416 199.46L232.992 201.884ZM234.579 202.761C235.612 202.761 236.508 202.199 237.182 201.641C237.906 201.043 238.663 200.206 239.449 199.19L236.739 197.091C236.025 198.013 235.446 198.629 234.998 198.999C234.5 199.411 234.388 199.333 234.579 199.333V202.761ZM239.45 199.189C240.771 197.481 241.754 195.932 242.308 194.566L239.131 193.278C238.747 194.224 237.979 195.488 236.738 197.092L239.45 199.189ZM249.25 202.922L250.805 203.645C251.139 202.926 250.937 202.071 250.315 201.579C249.694 201.086 248.816 201.084 248.192 201.573L249.25 202.922ZM239.454 210.609L240.446 212.007C240.468 211.991 240.49 211.975 240.512 211.958L239.454 210.609ZM228.438 214.359L228.112 212.677C228.104 212.678 228.096 212.68 228.088 212.681L228.438 214.359ZM240.25 207.844L241.288 209.208C241.299 209.2 241.31 209.191 241.32 209.183L240.25 207.844ZM253.282 197.438L254.351 198.777C254.357 198.772 254.363 198.768 254.369 198.763L253.282 197.438ZM272.782 191.016H271.068C271.068 191.962 271.835 192.73 272.782 192.73V191.016ZM272.641 192.797L272.573 191.084C271.831 191.114 271.192 191.618 270.991 192.332L272.641 192.797ZM265.141 196.078L266.329 197.314L266.335 197.308L265.141 196.078ZM270.954 191.859L271.615 193.441C272.15 193.217 272.536 192.737 272.64 192.166L270.954 191.859ZM271.047 191.344L272.734 191.65C272.752 191.549 272.761 191.447 272.761 191.344H271.047ZM259.188 199.078L257.959 197.883L257.955 197.887L259.188 199.078ZM256.188 214.406L256.367 212.702C256.362 212.701 256.357 212.701 256.352 212.7L256.188 214.406ZM270.157 193.922L271.745 194.566C272.008 193.917 271.85 193.174 271.346 192.688C270.843 192.202 270.094 192.072 269.456 192.358L270.157 193.922ZM266.313 197.016L267.514 198.238C267.518 198.235 267.521 198.231 267.525 198.228L266.313 197.016ZM263.641 200.672H261.927C261.927 201.126 262.108 201.562 262.429 201.884L263.641 200.672ZM264.016 201.047L262.804 202.259C263.125 202.58 263.561 202.761 264.016 202.761V201.047ZM267.532 198.141L268.887 199.19L268.887 199.189L267.532 198.141ZM248.192 201.573L238.395 209.261L240.512 211.958L250.308 204.27L248.192 201.573ZM238.461 209.212C235.98 210.973 233.842 212.259 232.039 213.099C230.214 213.948 228.848 214.286 227.875 214.286V217.714C229.559 217.714 231.451 217.154 233.486 216.206C235.541 215.249 237.864 213.839 240.446 212.007L238.461 209.212ZM227.875 214.286C227.952 214.286 228.324 214.306 228.666 214.647C229.007 214.988 229.027 215.361 229.027 215.438H225.599C225.599 215.889 225.713 216.543 226.242 217.071C226.77 217.6 227.424 217.714 227.875 217.714V214.286ZM229.027 215.438C229.027 215.49 229.018 215.585 228.971 215.7C228.923 215.817 228.853 215.914 228.78 215.984C228.65 216.108 228.587 216.079 228.787 216.037L228.088 212.681C227.539 212.796 226.913 213.025 226.408 213.509C225.854 214.04 225.599 214.732 225.599 215.438H229.027ZM228.764 216.042C232.086 215.399 236.293 213.009 241.288 209.208L239.212 206.48C234.271 210.241 230.602 212.195 228.112 212.677L228.764 216.042ZM241.32 209.183L254.351 198.777L252.212 196.098L239.181 206.504L241.32 209.183ZM254.369 198.763C257.881 195.882 260.937 193.765 263.545 192.376C266.175 190.974 268.216 190.386 269.735 190.386V186.958C267.41 186.958 264.786 187.83 261.933 189.351C259.056 190.883 255.807 193.15 252.195 196.112L254.369 198.763ZM269.735 190.386C270.579 190.386 270.897 190.556 270.975 190.616C270.999 190.635 271.008 190.646 271.019 190.672C271.034 190.707 271.068 190.808 271.068 191.016H274.496C274.496 189.832 274.088 188.686 273.065 187.899C272.127 187.178 270.922 186.958 269.735 186.958V190.386ZM272.782 192.73C272.899 192.73 272.668 192.76 272.402 192.518C272.268 192.397 272.184 192.256 272.139 192.133C272.118 192.076 272.108 192.03 272.104 191.999C272.101 191.984 272.1 191.973 272.099 191.965C272.099 191.957 272.099 191.953 272.099 191.953H275.527C275.527 191.332 275.349 190.564 274.708 189.982C274.098 189.428 273.351 189.302 272.782 189.302V192.73ZM272.099 191.953C272.099 191.874 272.114 191.73 272.195 191.562C272.279 191.388 272.4 191.257 272.518 191.172C272.627 191.093 272.708 191.072 272.712 191.07C272.717 191.069 272.676 191.08 272.573 191.084L272.71 194.51C273.246 194.488 273.932 194.378 274.521 193.953C275.215 193.454 275.527 192.704 275.527 191.953H272.099ZM270.991 192.332C270.438 194.295 269.386 196.301 267.778 198.347L270.473 200.465C272.303 198.137 273.594 195.736 274.291 193.262L270.991 192.332ZM267.778 198.347C265.805 200.857 264.264 201.63 263.172 201.63V205.058C265.893 205.058 268.32 203.205 270.473 200.465L267.778 198.347ZM263.172 201.63C263.017 201.63 262.946 201.611 262.935 201.608C262.93 201.606 262.99 201.625 263.065 201.694C263.101 201.726 263.132 201.763 263.156 201.801C263.18 201.838 263.194 201.869 263.201 201.888C263.214 201.923 263.199 201.903 263.199 201.797H259.771C259.771 202.617 260.001 203.536 260.748 204.221C261.467 204.88 262.381 205.058 263.172 205.058V201.63ZM263.199 201.797C263.199 201.522 263.322 201.004 263.843 200.189C264.353 199.391 265.165 198.433 266.329 197.314L263.953 194.843C262.68 196.067 261.663 197.234 260.955 198.342C260.257 199.433 259.771 200.603 259.771 201.797H263.199ZM266.335 197.308C268.42 195.283 270.178 194.041 271.615 193.441L270.292 190.278C268.291 191.115 266.174 192.686 263.947 194.848L266.335 197.308ZM272.64 192.166L272.734 191.65L269.361 191.037L269.267 191.553L272.64 192.166ZM272.761 191.344C272.761 190.861 272.639 190.184 272.095 189.64C271.551 189.095 270.874 188.973 270.391 188.973V192.402C270.346 192.402 269.997 192.389 269.671 192.064C269.346 191.738 269.333 191.389 269.333 191.344H272.761ZM270.391 188.973C269.517 188.973 268.633 189.266 267.8 189.67C266.948 190.083 266.025 190.675 265.039 191.413C263.069 192.889 260.705 195.059 257.959 197.883L260.417 200.273C263.109 197.504 265.33 195.478 267.094 194.157C267.976 193.497 268.707 193.04 269.296 192.754C269.904 192.459 270.249 192.402 270.391 192.402V188.973ZM257.955 197.887C255.223 200.714 253.124 203.165 251.696 205.228C250.328 207.205 249.365 209.118 249.365 210.797H252.793C252.793 210.257 253.181 209.107 254.515 207.178C255.791 205.335 257.747 203.036 260.42 200.269L257.955 197.887ZM249.365 210.797C249.365 211.742 249.566 212.662 250.056 213.475C250.551 214.296 251.273 214.895 252.126 215.299L253.594 212.201C253.259 212.043 253.09 211.868 252.992 211.705C252.888 211.533 252.793 211.258 252.793 210.797H249.365ZM252.126 215.299C253.022 215.723 254.41 215.957 256.024 216.112L256.352 212.7C254.716 212.543 253.885 212.339 253.594 212.201L252.126 215.299ZM256.008 216.111C256.26 216.137 256.455 216.169 256.6 216.201C256.672 216.216 256.726 216.231 256.765 216.243C256.784 216.249 256.799 216.254 256.809 216.258C256.814 216.26 256.818 216.261 256.82 216.262C256.823 216.263 256.824 216.264 256.824 216.264C256.824 216.264 256.823 216.263 256.82 216.262C256.817 216.261 256.813 216.259 256.808 216.256C256.797 216.25 256.781 216.24 256.759 216.226C256.718 216.198 256.649 216.145 256.573 216.06C256.496 215.972 256.413 215.851 256.35 215.694C256.286 215.534 256.255 215.367 256.255 215.203H259.683C259.683 213.967 258.727 213.36 258.224 213.135C257.677 212.89 257.017 212.77 256.367 212.702L256.008 216.111ZM256.255 215.203C256.255 214.78 256.47 214.465 256.649 214.312C256.777 214.202 256.837 214.213 256.678 214.258C256.367 214.347 255.74 214.427 254.688 214.427V217.855C255.823 217.855 256.837 217.778 257.62 217.554C258.008 217.443 258.478 217.259 258.88 216.915C259.332 216.527 259.683 215.939 259.683 215.203H256.255ZM254.688 214.427C252.477 214.427 251.138 213.92 250.357 213.209C249.607 212.526 249.089 211.395 249.089 209.484H245.661C245.661 212.011 246.363 214.208 248.05 215.744C249.706 217.252 252.024 217.855 254.688 217.855V214.427ZM249.089 209.484C249.089 208.169 249.592 206.252 250.805 203.645L247.696 202.199C246.409 204.967 245.661 207.425 245.661 209.484H249.089ZM269.456 192.358C268.233 192.906 266.758 194.147 265.101 195.804L267.525 198.228C269.18 196.572 270.267 195.751 270.858 195.486L269.456 192.358ZM265.112 195.793C264.192 196.697 263.449 197.514 262.925 198.231C262.663 198.59 262.429 198.959 262.255 199.331C262.089 199.688 261.927 200.152 261.927 200.672H265.355C265.355 200.848 265.305 200.902 265.361 200.782C265.41 200.677 265.51 200.504 265.693 200.253C266.059 199.752 266.653 199.084 267.514 198.238L265.112 195.793ZM262.429 201.884L262.804 202.259L265.228 199.835L264.853 199.46L262.429 201.884ZM264.016 202.761C265.05 202.761 265.946 202.199 266.62 201.641C267.344 201.043 268.1 200.206 268.887 199.19L266.176 197.091C265.463 198.013 264.883 198.629 264.436 198.999C263.938 199.411 263.826 199.333 264.016 199.333V202.761ZM268.887 199.189C270.209 197.481 271.191 195.932 271.745 194.566L268.568 193.278C268.185 194.224 267.417 195.488 266.176 197.092L268.887 199.189ZM274.797 208.406L276.469 208.784C276.6 208.206 276.423 207.602 276.001 207.186C275.58 206.77 274.973 206.601 274.397 206.74L274.797 208.406ZM265.985 212.719L266.838 214.205L266.844 214.202L265.985 212.719ZM257.969 214.359L258.23 216.053C258.235 216.053 258.241 216.052 258.246 216.051L257.969 214.359ZM266.032 210.844L265.179 209.357C265.174 209.36 265.17 209.362 265.166 209.365L266.032 210.844ZM275.36 206.719L275.75 208.388C276.288 208.262 276.732 207.885 276.943 207.375L275.36 206.719ZM284.266 195.797L285.374 197.105L285.381 197.099L284.266 195.797ZM292.329 201.938L291.424 200.482L291.416 200.487L292.329 201.938ZM280.422 207.656L279.873 206.033C279.416 206.187 279.045 206.527 278.852 206.969L280.422 207.656ZM281.454 213.984L280.757 215.551C280.782 215.562 280.807 215.572 280.832 215.582L281.454 213.984ZM284.641 214.406L284.573 216.119C284.579 216.119 284.586 216.119 284.593 216.12L284.641 214.406ZM280.985 205.781L279.395 205.141C279.13 205.799 279.298 206.553 279.817 207.036C280.337 207.519 281.1 207.633 281.738 207.321L280.985 205.781ZM290.079 200.062L289.057 198.686L289.046 198.695L290.079 200.062ZM287.125 197.062L285.872 195.893C285.869 195.897 285.866 195.9 285.862 195.904L287.125 197.062ZM274.397 206.74C273.424 206.973 272.16 207.497 270.669 208.226C269.151 208.969 267.3 209.975 265.125 211.236L266.844 214.202C268.982 212.962 270.756 212 272.176 211.305C273.622 210.597 274.608 210.214 275.197 210.073L274.397 206.74ZM265.132 211.232C261.332 213.412 258.789 214.286 257.313 214.286V217.714C259.775 217.714 263.013 216.4 266.838 214.205L265.132 211.232ZM257.313 214.286C257.426 214.286 257.816 214.323 258.15 214.685C258.461 215.021 258.464 215.362 258.464 215.391H255.036C255.036 215.825 255.134 216.471 255.632 217.01C256.153 217.575 256.824 217.714 257.313 217.714V214.286ZM258.464 215.391C258.464 215.46 258.451 215.576 258.391 215.711C258.329 215.848 258.242 215.952 258.162 216.019C258.088 216.082 258.039 216.099 258.051 216.094C258.064 216.089 258.118 216.071 258.23 216.053L257.709 212.665C257.146 212.752 256.49 212.944 255.948 213.402C255.336 213.921 255.036 214.638 255.036 215.391H258.464ZM258.246 216.051C260.483 215.684 263.401 214.371 266.898 212.323L265.166 209.365C261.725 211.379 259.267 212.41 257.692 212.668L258.246 216.051ZM266.885 212.33C270.646 210.172 273.585 208.894 275.75 208.388L274.97 205.05C272.322 205.669 269.042 207.14 265.179 209.357L266.885 212.33ZM276.943 207.375C278.233 204.262 280.975 200.831 285.374 197.105L283.158 194.489C278.557 198.387 275.361 202.238 273.776 206.063L276.943 207.375ZM285.381 197.099C290.088 193.069 293.764 191.37 296.5 191.37V187.942C292.487 187.942 288.007 190.337 283.151 194.495L285.381 197.099ZM296.5 191.37C297.548 191.37 298.014 191.599 298.203 191.759C298.338 191.874 298.536 192.125 298.536 192.844H301.964C301.964 191.438 301.538 190.095 300.423 189.147C299.362 188.245 297.953 187.942 296.5 187.942V191.37ZM298.536 192.844C298.536 193.67 298.145 194.737 296.978 196.077C295.813 197.414 293.99 198.888 291.424 200.482L293.233 203.393C295.949 201.706 298.086 200.023 299.562 198.329C301.035 196.638 301.964 194.799 301.964 192.844H298.536ZM291.416 200.487C287.647 202.857 283.8 204.704 279.873 206.033L280.972 209.28C285.17 207.859 289.26 205.893 293.241 203.388L291.416 200.487ZM278.852 206.969C278.32 208.186 278.052 209.467 278.052 210.797H281.48C281.48 209.939 281.65 209.126 281.993 208.343L278.852 206.969ZM278.052 210.797C278.052 211.795 278.223 212.765 278.673 213.614C279.139 214.494 279.853 215.149 280.757 215.551L282.15 212.418C281.929 212.32 281.8 212.194 281.703 212.011C281.59 211.798 281.48 211.424 281.48 210.797H278.052ZM280.832 215.582C281.695 215.918 283.029 216.057 284.573 216.119L284.71 212.694C283.128 212.63 282.337 212.489 282.075 212.387L280.832 215.582ZM284.593 216.12C284.815 216.126 284.975 216.143 285.082 216.162C285.195 216.182 285.213 216.197 285.175 216.179C285.135 216.16 284.984 216.081 284.842 215.887C284.684 215.672 284.615 215.423 284.615 215.203H288.043C288.043 214.734 287.903 214.263 287.604 213.857C287.321 213.472 286.96 213.231 286.639 213.079C286.034 212.794 285.327 212.711 284.689 212.693L284.593 216.12ZM284.615 215.203C284.615 214.56 285.052 214.267 285.076 214.252C285.087 214.246 284.954 214.319 284.546 214.402C283.759 214.562 282.457 214.661 280.563 214.661V218.089C282.512 218.089 284.094 217.992 285.229 217.762C285.781 217.649 286.369 217.479 286.86 217.179C287.365 216.872 288.043 216.237 288.043 215.203H284.615ZM280.563 214.661C278.742 214.661 277.696 214.26 277.117 213.757C276.584 213.294 276.183 212.512 276.183 211.078H272.755C272.755 213.175 273.369 215.042 274.868 216.344C276.321 217.607 278.322 218.089 280.563 218.089V214.661ZM276.183 211.078C276.183 210.417 276.272 209.655 276.469 208.784L273.125 208.029C272.885 209.095 272.755 210.114 272.755 211.078H276.183ZM281.738 207.321C284.732 205.856 287.857 203.887 291.111 201.43L289.046 198.695C285.925 201.05 282.988 202.894 280.232 204.242L281.738 207.321ZM291.1 201.439C293.275 199.824 294.984 198.321 296.166 196.93C297.307 195.587 298.168 194.106 298.168 192.562H294.74C294.74 192.863 294.537 193.553 293.554 194.71C292.611 195.82 291.132 197.145 289.057 198.686L291.1 201.439ZM298.168 192.562C298.168 191.958 298.032 191.186 297.459 190.561C296.86 189.907 296.07 189.723 295.422 189.723V193.152C295.462 193.152 295.187 193.155 294.932 192.877C294.703 192.627 294.74 192.417 294.74 192.562H298.168ZM295.422 189.723C293.907 189.723 292.364 190.407 290.863 191.425C289.333 192.462 287.669 193.968 285.872 195.893L288.378 198.232C290.082 196.407 291.55 195.101 292.786 194.262C294.051 193.405 294.906 193.152 295.422 193.152V189.723ZM285.862 195.904C282.69 199.362 280.479 202.449 279.395 205.141L282.575 206.421C283.429 204.301 285.311 201.575 288.388 198.221L285.862 195.904ZM300.438 207.984H302.152C302.152 207.321 301.77 206.718 301.17 206.435C300.571 206.151 299.862 206.239 299.349 206.66L300.438 207.984ZM286 214.359L285.595 212.694L285.585 212.697L286 214.359ZM291.344 212.484L291.984 214.074C292.045 214.05 292.103 214.022 292.16 213.991L291.344 212.484ZM308.5 199.172L307.405 197.854L307.403 197.855L308.5 199.172ZM324.016 189.234L322.863 190.503C322.872 190.511 322.882 190.519 322.891 190.528L324.016 189.234ZM319.75 203.297L321.205 204.203L321.207 204.2L319.75 203.297ZM311.641 214.453L310.39 213.281C309.923 213.78 309.797 214.508 310.068 215.135C310.34 215.762 310.958 216.167 311.641 216.167V214.453ZM310.141 215.953L309.82 217.637C309.825 217.638 309.83 217.639 309.834 217.639L310.141 215.953ZM307.891 212.062L306.296 212.689C306.497 213.201 306.931 213.585 307.463 213.722C307.995 213.859 308.561 213.733 308.985 213.382L307.891 212.062ZM315.11 202.688L316.585 203.56L316.585 203.559L315.11 202.688ZM320.219 191.766L321.858 192.269C322.079 191.547 321.803 190.766 321.177 190.344C320.551 189.923 319.724 189.96 319.138 190.436L320.219 191.766ZM303.438 205.406L302.357 204.076C301.833 204.502 301.608 205.196 301.782 205.848C301.956 206.501 302.497 206.99 303.164 207.098L303.438 205.406ZM306.344 208.125L307.939 207.498C307.924 207.459 307.907 207.42 307.889 207.382L306.344 208.125ZM306.532 213.516L307.822 214.644C308.23 214.178 308.354 213.527 308.147 212.943L306.532 213.516ZM305.219 209.812L306.835 209.24C306.83 209.228 306.826 209.216 306.822 209.205L305.219 209.812ZM303.11 211.969L301.611 212.801L301.615 212.807L303.11 211.969ZM299.349 206.66C296.147 209.293 293.381 211.224 291.044 212.489C288.679 213.768 286.898 214.286 285.625 214.286V217.714C287.728 217.714 290.103 216.896 292.676 215.504C295.276 214.096 298.229 212.019 301.526 209.308L299.349 206.66ZM285.625 214.286C285.702 214.286 286.074 214.306 286.415 214.647C286.757 214.988 286.777 215.361 286.777 215.438H283.349C283.349 215.889 283.463 216.543 283.992 217.071C284.52 217.6 285.174 217.714 285.625 217.714V214.286ZM286.777 215.438C286.777 215.455 286.774 215.517 286.745 215.604C286.714 215.695 286.662 215.789 286.591 215.871C286.448 216.035 286.327 216.045 286.416 216.022L285.585 212.697C285.049 212.83 284.459 213.098 284.004 213.621C283.529 214.168 283.349 214.822 283.349 215.438H286.777ZM286.406 216.025C287.69 215.712 289.569 215.047 291.984 214.074L290.704 210.894C288.307 211.86 286.623 212.444 285.595 212.694L286.406 216.025ZM292.16 213.991C293.428 213.305 295.526 211.804 298.371 209.596C301.253 207.36 304.997 204.322 309.598 200.489L307.403 197.855C302.816 201.678 299.107 204.687 296.27 206.888C293.397 209.118 291.511 210.445 290.528 210.977L292.16 213.991ZM309.596 200.49C313.954 196.866 317.245 194.152 319.471 192.347C320.585 191.443 321.424 190.773 321.994 190.332C322.282 190.11 322.485 189.958 322.615 189.866C322.683 189.818 322.708 189.803 322.702 189.806C322.702 189.807 322.663 189.831 322.6 189.86C322.568 189.875 322.505 189.903 322.419 189.931C322.354 189.952 322.163 190.011 321.907 190.011V186.583C321.477 186.583 321.152 186.753 321.147 186.755C321.054 186.799 320.977 186.844 320.929 186.872C320.83 186.932 320.728 187.002 320.636 187.067C320.445 187.202 320.196 187.39 319.897 187.621C319.295 188.086 318.431 188.776 317.311 189.685C315.069 191.504 311.765 194.228 307.405 197.854L309.596 200.49ZM321.907 190.011C322.086 190.011 322.396 190.078 322.863 190.503L325.169 187.966C324.261 187.141 323.165 186.583 321.907 186.583V190.011ZM322.891 190.528C323.365 190.939 323.38 191.176 323.38 191.25H326.808C326.808 189.887 326.105 188.779 325.141 187.941L322.891 190.528ZM323.38 191.25C323.38 192.02 323.058 193.323 322.191 195.278C321.345 197.186 320.053 199.554 318.293 202.394L321.207 204.2C323.01 201.289 324.39 198.774 325.325 196.668C326.239 194.606 326.808 192.762 326.808 191.25H323.38ZM318.295 202.391C315.225 207.323 312.59 210.932 310.39 213.281L312.892 215.625C315.317 213.036 318.089 209.209 321.205 204.203L318.295 202.391ZM311.641 216.167C311.927 216.167 312.148 216.181 312.312 216.201C312.393 216.211 312.453 216.222 312.496 216.231C312.539 216.241 312.557 216.248 312.555 216.247C312.554 216.247 312.521 216.234 312.47 216.203C312.418 216.171 312.338 216.113 312.254 216.019C312.167 215.922 312.084 215.796 312.025 215.642C311.966 215.487 311.943 215.336 311.943 215.203H315.371C315.371 214.653 315.171 214.137 314.807 213.731C314.476 213.362 314.075 213.155 313.75 213.034C313.122 212.801 312.371 212.739 311.641 212.739V216.167ZM311.943 215.203C311.943 215.042 311.991 214.828 312.129 214.63C312.257 214.448 312.395 214.374 312.428 214.359C312.455 214.346 312.42 214.367 312.281 214.389C312.146 214.411 311.952 214.427 311.688 214.427V217.855C312.426 217.855 313.226 217.775 313.901 217.454C314.262 217.282 314.646 217.013 314.938 216.596C315.24 216.164 315.371 215.677 315.371 215.203H311.943ZM311.688 214.427C311.505 214.427 311.115 214.388 310.448 214.267L309.834 217.639C310.542 217.768 311.183 217.855 311.688 217.855V214.427ZM310.462 214.269C309.779 214.139 309.151 214.052 308.641 214.052V217.48C308.819 217.48 309.191 217.517 309.82 217.637L310.462 214.269ZM308.641 214.052C308.225 214.052 307.721 214.124 307.2 214.222L307.832 217.591C308.311 217.501 308.557 217.48 308.641 217.48V214.052ZM307.2 214.222C306.721 214.312 306.475 214.333 306.391 214.333V217.761C306.807 217.761 307.311 217.688 307.832 217.591L307.2 214.222ZM306.391 214.333C304.835 214.333 303.911 213.834 303.305 213.013C302.627 212.095 302.152 210.511 302.152 207.984H298.724C298.724 210.833 299.241 213.28 300.547 215.049C301.926 216.916 303.978 217.761 306.391 217.761V214.333ZM308.985 213.382C311.401 211.38 313.928 208.053 316.585 203.56L313.635 201.815C311.042 206.197 308.756 209.12 306.797 210.743L308.985 213.382ZM316.585 203.559C319.064 199.365 320.836 195.597 321.858 192.269L318.581 191.263C317.665 194.246 316.031 197.76 313.634 201.816L316.585 203.559ZM319.138 190.436L302.357 204.076L304.519 206.736L321.3 193.096L319.138 190.436ZM303.164 207.098C303.516 207.155 304.125 207.465 304.799 208.868L307.889 207.382C307.001 205.535 305.672 204.032 303.712 203.714L303.164 207.098ZM304.749 208.752L306.296 212.689L309.486 211.436L307.939 207.498L304.749 208.752ZM308.147 212.943L306.835 209.24L303.604 210.385L304.916 214.088L308.147 212.943ZM306.822 209.205C306.456 208.24 306.05 207.391 305.576 206.753C305.145 206.17 304.368 205.38 303.204 205.38V208.808C302.696 208.808 302.583 208.47 302.823 208.794C303.021 209.062 303.295 209.572 303.617 210.42L306.822 209.205ZM303.204 205.38C302.338 205.38 301.51 205.759 300.991 206.561C300.555 207.235 300.458 208.026 300.458 208.688H303.886C303.886 208.509 303.901 208.403 303.912 208.352C303.923 208.299 303.923 208.34 303.869 208.423C303.808 208.518 303.698 208.634 303.537 208.717C303.382 208.797 303.254 208.808 303.204 208.808V205.38ZM300.458 208.688C300.458 210.097 300.875 211.475 301.611 212.801L304.608 211.136C304.095 210.212 303.886 209.403 303.886 208.688H300.458ZM301.615 212.807C302.467 214.325 303.769 215.605 305.641 215.605V212.177C305.576 212.177 305.191 212.175 304.605 211.13L301.615 212.807ZM305.641 215.605C306.439 215.605 307.233 215.317 307.822 214.644L305.242 212.387C305.298 212.322 305.381 212.259 305.48 212.217C305.574 212.178 305.637 212.177 305.641 212.177V215.605ZM327.813 207.984H329.527C329.527 207.321 329.145 206.718 328.545 206.435C327.946 206.151 327.237 206.239 326.724 206.66L327.813 207.984ZM313.375 214.359L312.97 212.694L312.96 212.697L313.375 214.359ZM318.719 212.484L319.359 214.074C319.42 214.05 319.478 214.022 319.535 213.991L318.719 212.484ZM335.875 199.172L334.78 197.854L334.778 197.855L335.875 199.172ZM351.391 189.234L350.238 190.503C350.247 190.511 350.257 190.519 350.266 190.528L351.391 189.234ZM347.125 203.297L348.58 204.203L348.582 204.2L347.125 203.297ZM339.016 214.453L337.765 213.281C337.298 213.78 337.172 214.508 337.443 215.135C337.715 215.762 338.333 216.167 339.016 216.167V214.453ZM337.516 215.953L337.195 217.637C337.2 217.638 337.205 217.639 337.209 217.639L337.516 215.953ZM335.266 212.062L333.671 212.689C333.872 213.201 334.306 213.585 334.838 213.722C335.37 213.859 335.936 213.733 336.36 213.382L335.266 212.062ZM342.485 202.688L343.96 203.56L343.96 203.559L342.485 202.688ZM347.594 191.766L349.233 192.269C349.454 191.547 349.178 190.766 348.552 190.344C347.926 189.923 347.099 189.96 346.513 190.436L347.594 191.766ZM330.813 205.406L329.732 204.076C329.208 204.502 328.983 205.196 329.157 205.848C329.331 206.501 329.872 206.99 330.539 207.098L330.813 205.406ZM333.719 208.125L335.314 207.498C335.299 207.459 335.282 207.42 335.264 207.382L333.719 208.125ZM333.907 213.516L335.197 214.644C335.605 214.178 335.729 213.527 335.522 212.943L333.907 213.516ZM332.594 209.812L334.21 209.24C334.205 209.228 334.201 209.216 334.197 209.205L332.594 209.812ZM330.485 211.969L328.986 212.801L328.99 212.807L330.485 211.969ZM326.724 206.66C323.522 209.293 320.756 211.224 318.419 212.489C316.054 213.768 314.273 214.286 313 214.286V217.714C315.103 217.714 317.478 216.896 320.051 215.504C322.651 214.096 325.604 212.019 328.901 209.308L326.724 206.66ZM313 214.286C313.077 214.286 313.449 214.306 313.79 214.647C314.132 214.988 314.152 215.361 314.152 215.438H310.724C310.724 215.889 310.838 216.543 311.367 217.071C311.895 217.6 312.549 217.714 313 217.714V214.286ZM314.152 215.438C314.152 215.455 314.149 215.517 314.12 215.604C314.089 215.695 314.037 215.789 313.966 215.871C313.823 216.035 313.702 216.045 313.791 216.022L312.96 212.697C312.424 212.83 311.834 213.098 311.379 213.621C310.904 214.168 310.724 214.822 310.724 215.438H314.152ZM313.781 216.025C315.065 215.712 316.944 215.047 319.359 214.074L318.079 210.894C315.682 211.86 313.998 212.444 312.97 212.694L313.781 216.025ZM319.535 213.991C320.803 213.305 322.901 211.804 325.746 209.596C328.628 207.36 332.372 204.322 336.973 200.489L334.778 197.855C330.191 201.678 326.482 204.687 323.645 206.888C320.772 209.118 318.886 210.445 317.903 210.977L319.535 213.991ZM336.971 200.49C341.329 196.866 344.62 194.152 346.846 192.347C347.96 191.443 348.799 190.773 349.369 190.332C349.657 190.11 349.86 189.958 349.99 189.866C350.058 189.818 350.083 189.803 350.077 189.806C350.077 189.807 350.038 189.831 349.975 189.86C349.943 189.875 349.88 189.903 349.794 189.931C349.729 189.952 349.538 190.011 349.282 190.011V186.583C348.852 186.583 348.527 186.753 348.522 186.755C348.429 186.799 348.352 186.844 348.304 186.872C348.205 186.932 348.103 187.002 348.011 187.067C347.82 187.202 347.571 187.39 347.272 187.621C346.67 188.086 345.806 188.776 344.686 189.685C342.444 191.504 339.14 194.228 334.78 197.854L336.971 200.49ZM349.282 190.011C349.461 190.011 349.771 190.078 350.238 190.503L352.544 187.966C351.636 187.141 350.54 186.583 349.282 186.583V190.011ZM350.266 190.528C350.74 190.939 350.755 191.176 350.755 191.25H354.183C354.183 189.887 353.48 188.779 352.516 187.941L350.266 190.528ZM350.755 191.25C350.755 192.02 350.433 193.323 349.566 195.278C348.72 197.186 347.428 199.554 345.668 202.394L348.582 204.2C350.385 201.289 351.765 198.774 352.7 196.668C353.614 194.606 354.183 192.762 354.183 191.25H350.755ZM345.67 202.391C342.6 207.323 339.965 210.932 337.765 213.281L340.267 215.625C342.692 213.036 345.464 209.209 348.58 204.203L345.67 202.391ZM339.016 216.167C339.302 216.167 339.523 216.181 339.687 216.201C339.768 216.211 339.828 216.222 339.871 216.231C339.914 216.241 339.932 216.248 339.93 216.247C339.929 216.247 339.896 216.234 339.845 216.203C339.793 216.171 339.713 216.113 339.629 216.019C339.542 215.922 339.459 215.796 339.4 215.642C339.341 215.487 339.318 215.336 339.318 215.203H342.746C342.746 214.653 342.546 214.137 342.182 213.731C341.851 213.362 341.45 213.155 341.125 213.034C340.497 212.801 339.746 212.739 339.016 212.739V216.167ZM339.318 215.203C339.318 215.042 339.366 214.828 339.504 214.63C339.632 214.448 339.77 214.374 339.803 214.359C339.83 214.346 339.795 214.367 339.656 214.389C339.521 214.411 339.327 214.427 339.063 214.427V217.855C339.801 217.855 340.601 217.775 341.276 217.454C341.637 217.282 342.021 217.013 342.313 216.596C342.615 216.164 342.746 215.677 342.746 215.203H339.318ZM339.063 214.427C338.88 214.427 338.49 214.388 337.823 214.267L337.209 217.639C337.917 217.768 338.558 217.855 339.063 217.855V214.427ZM337.837 214.269C337.154 214.139 336.526 214.052 336.016 214.052V217.48C336.194 217.48 336.566 217.517 337.195 217.637L337.837 214.269ZM336.016 214.052C335.6 214.052 335.096 214.124 334.575 214.222L335.207 217.591C335.686 217.501 335.932 217.48 336.016 217.48V214.052ZM334.575 214.222C334.096 214.312 333.85 214.333 333.766 214.333V217.761C334.182 217.761 334.686 217.688 335.207 217.591L334.575 214.222ZM333.766 214.333C332.21 214.333 331.286 213.834 330.68 213.013C330.002 212.095 329.527 210.511 329.527 207.984H326.099C326.099 210.833 326.616 213.28 327.922 215.049C329.301 216.916 331.353 217.761 333.766 217.761V214.333ZM336.36 213.382C338.776 211.38 341.303 208.053 343.96 203.56L341.01 201.815C338.417 206.197 336.131 209.12 334.172 210.743L336.36 213.382ZM343.96 203.559C346.439 199.365 348.211 195.597 349.233 192.269L345.956 191.263C345.04 194.246 343.406 197.76 341.009 201.816L343.96 203.559ZM346.513 190.436L329.732 204.076L331.894 206.736L348.675 193.096L346.513 190.436ZM330.539 207.098C330.891 207.155 331.5 207.465 332.174 208.868L335.264 207.382C334.376 205.535 333.047 204.032 331.087 203.714L330.539 207.098ZM332.124 208.752L333.671 212.689L336.861 211.436L335.314 207.498L332.124 208.752ZM335.522 212.943L334.21 209.24L330.979 210.385L332.291 214.088L335.522 212.943ZM334.197 209.205C333.831 208.24 333.425 207.391 332.951 206.753C332.52 206.17 331.743 205.38 330.579 205.38V208.808C330.071 208.808 329.958 208.47 330.198 208.794C330.396 209.062 330.67 209.572 330.992 210.42L334.197 209.205ZM330.579 205.38C329.713 205.38 328.885 205.759 328.366 206.561C327.93 207.235 327.833 208.026 327.833 208.688H331.261C331.261 208.509 331.276 208.403 331.287 208.352C331.298 208.299 331.298 208.34 331.244 208.423C331.183 208.518 331.073 208.634 330.912 208.717C330.757 208.797 330.629 208.808 330.579 208.808V205.38ZM327.833 208.688C327.833 210.097 328.25 211.475 328.986 212.801L331.983 211.136C331.47 210.212 331.261 209.403 331.261 208.688H327.833ZM328.99 212.807C329.842 214.325 331.144 215.605 333.016 215.605V212.177C332.951 212.177 332.566 212.175 331.98 211.13L328.99 212.807ZM333.016 215.605C333.814 215.605 334.608 215.317 335.197 214.644L332.617 212.387C332.673 212.322 332.756 212.259 332.855 212.217C332.949 212.178 333.012 212.177 333.016 212.177V215.605Z" fill="#D14D72"/>
</g>
<g style="mix-blend-mode:multiply" filter="url(#filter1_d_112_4)">
<path d="M206.788 13C199.356 26.6501 193.893 36.8572 190.399 43.6213C186.96 50.3245 184.658 55.1386 183.493 58.0636L199.966 55.687L200.715 83.0177C185.241 95.3881 167.742 116.503 148.219 146.363C149.772 126.253 151.131 107.332 152.296 89.599C153.516 71.8661 154.126 61.1409 154.126 57.4238C154.126 55.5956 154.015 52.7315 153.793 48.8315C145.585 42.1283 137.875 36.4306 130.665 31.7384C123.455 26.9853 117.049 23.3899 111.447 20.9524C99.8002 15.7727 88.2639 13.1828 76.8385 13.1828C64.6367 13.1828 52.7954 16.3211 41.3146 22.5977C38.5415 28.5087 33.1893 37.5885 25.2581 49.837C31.5254 48.7401 37.46 48.1917 43.0617 48.1917C65.7459 48.1917 86.6 53.6761 105.624 64.6449C111.004 71.2871 115.108 77.5028 117.936 83.2919C120.876 89.4467 123.261 96.8506 125.091 105.504C126.977 114.584 128.28 125.613 129.001 138.593L126.846 204L155.127 181.803C165.388 162.363 178.696 128.386 192.062 109.434C196.167 103.584 200.354 97.978 204.625 92.6154C208.895 87.192 212.722 82.652 216.106 78.9958C219.544 75.2786 222.872 72.0184 226.089 69.2153C229.25 60.8668 230.831 51.9698 230.831 42.5244C230.831 34.8463 229.777 27.0766 227.67 19.2157C224.952 18.6063 217.991 16.5344 206.788 13ZM256.538 56.7839C245.889 66.1684 238.929 73.877 235.656 79.9099C232.273 86.0036 230.581 93.499 230.581 102.396C230.581 108.551 231.053 115.437 231.996 123.054C232.661 127.929 233.105 131.524 233.327 133.84C236.821 135.607 241.813 137.435 248.302 139.324C256.732 129.818 263.221 122.323 267.769 116.838C272.317 111.354 275.063 107.758 276.005 106.052C276.005 120.677 275.506 132.164 274.508 140.513C288.263 136.186 297.719 133.566 302.877 132.652C302.323 128.386 302.045 124.669 302.045 121.5L302.461 94.6264C302.461 87.7404 301.879 82.2864 300.714 78.2645C299.549 74.1817 297.802 71.0129 295.473 68.7582C293.143 66.5035 290.675 64.8582 288.069 63.8223C285.406 62.9082 279.916 61.6284 271.596 59.9832C262.389 58.0941 257.37 57.0277 256.538 56.7839ZM337.569 56.8753C336.016 59.8003 332.3 65.0105 326.421 72.5059C321.707 78.7216 318.379 83.9013 316.438 88.0451C314.386 92.3107 313.36 97.978 313.36 105.047C313.36 110.775 314.136 117.082 315.689 123.968C316.577 128.234 317.02 130.336 317.02 130.275C323.398 133.444 328.778 135.302 333.16 135.851C333.992 134.267 335.878 132.073 338.817 129.27C346.027 122.627 351.518 116.442 355.29 110.714C355.456 112.542 355.678 120.434 355.955 134.388L356.371 157.971C342.395 156.326 333.188 151.329 328.751 142.981L315.606 156.692L317.02 175.613C323.62 182.377 333.271 185.759 345.972 185.759C350.021 185.759 353.043 185.241 355.04 184.205C356.704 183.291 359.838 180.427 364.441 175.613C368.822 170.921 372.317 166.137 374.923 161.262C377.641 156.265 379.277 152.152 379.832 148.922C380.442 145.51 380.913 139.934 381.246 132.195L383.243 106.418C383.908 98.8006 384.241 92.5849 384.241 87.7709C384.241 77.2895 380.608 69.5199 373.343 64.4621C365.966 59.4042 354.042 56.8753 337.569 56.8753ZM339.566 75.6137C344.89 76.9544 350.936 80.6107 357.702 86.5826C357.148 88.5935 354.513 93.7123 349.799 101.939C345.14 110.044 341.729 114.797 339.566 116.198V75.6137ZM256.205 78.813C265.523 80.8239 271.707 84.2365 274.758 89.0506C272.65 93.1334 270.099 97.5209 267.104 102.213C264.109 106.844 261.086 111.019 258.036 114.736L256.205 78.813Z" fill="white"/>
<path d="M208.292 8.23165L204.365 6.9929L202.397 10.6091C194.961 24.2655 189.477 34.5119 185.956 41.3265L185.953 41.3328L185.95 41.3391C182.511 48.0435 180.11 53.0455 178.848 56.2139L175.649 64.2471L184.207 63.0124L195.122 61.4377L195.649 80.7012C183.034 91.2448 169.362 107.076 154.621 128.004C155.599 114.761 156.487 102.072 157.284 89.9367C158.498 72.2912 159.126 61.3559 159.126 57.4238C159.126 55.4447 159.008 52.4611 158.785 48.5476L158.66 46.3506L156.956 44.9588C148.643 38.1706 140.792 32.364 133.405 27.5559C126.057 22.7126 119.401 18.9625 113.461 16.3758C101.255 10.95 89.0348 8.18281 76.8385 8.18281C63.7382 8.18281 51.0776 11.5618 38.9161 18.2106L37.4821 18.9945L36.788 20.4741C34.1708 26.0526 28.9815 34.8876 21.0612 47.1194L14.8332 56.7375L26.1201 54.7621C32.1403 53.7085 37.7847 53.1917 43.0617 53.1917C64.5787 53.1917 84.3001 58.3068 102.321 68.5164C107.236 74.6646 110.914 80.3131 113.434 85.4663C116.156 91.1711 118.429 98.1691 120.197 106.529C122.006 115.238 123.282 125.93 123.997 138.65L121.849 203.835L121.496 214.556L129.933 207.933L158.214 185.736L159.052 185.078L159.549 184.137C163.143 177.327 167.129 168.713 171.292 159.715C173.149 155.702 175.042 151.612 176.951 147.572C183.237 134.266 189.744 121.397 196.148 112.316L196.156 112.306C200.204 106.535 204.331 101.01 208.536 95.7303L208.545 95.7195L208.553 95.7087C212.77 90.353 216.509 85.9215 219.776 82.3917L219.776 82.3911C223.115 78.782 226.314 75.651 229.374 72.9849L230.32 72.1601L230.765 70.9859C234.153 62.0394 235.831 52.5393 235.831 42.5244C235.831 34.3836 234.713 26.1788 232.499 17.9209L231.716 14.9987L228.764 14.3368C226.302 13.7849 219.579 11.7923 208.292 8.23165ZM257.944 51.9856L255.3 51.2109L253.232 53.0327C242.522 62.4713 234.994 70.6564 231.273 77.5045C227.387 84.5141 225.581 92.8891 225.581 102.396C225.581 108.799 226.071 115.895 227.034 123.668L227.037 123.699L227.042 123.73C227.706 128.595 228.138 132.107 228.35 134.317L228.612 137.059L231.07 138.302C234.968 140.273 240.299 142.202 246.904 144.125L249.943 145.01L252.043 142.642C259.996 133.673 266.253 126.46 270.798 121.016C270.567 128.584 270.146 134.877 269.543 139.919L268.624 147.605L276.008 145.282C289.795 140.946 298.956 138.424 303.75 137.575L308.451 136.742L307.835 132.007C307.302 127.903 307.047 124.422 307.045 121.537L307.461 94.7038L307.461 94.6651V94.6264C307.461 87.5337 306.87 81.5486 305.518 76.8792C304.185 72.2122 302.074 68.1887 298.95 65.1655C296.224 62.5264 293.216 60.4876 289.915 59.1757L289.805 59.1318L289.692 59.0932C286.658 58.0512 280.837 56.714 272.583 55.0816C267.992 54.1395 264.455 53.4046 261.966 52.8757C260.718 52.6106 259.745 52.3998 259.04 52.2418C258.686 52.1627 258.412 52.0994 258.21 52.0511C257.982 51.9967 257.918 51.9781 257.944 51.9856ZM337.569 51.8753H334.563L333.153 54.5306C331.841 57.0025 328.404 61.8764 322.487 69.4201L322.462 69.452L322.437 69.4844C317.644 75.8037 314.08 81.2986 311.92 85.9018C309.431 91.09 308.36 97.5778 308.36 105.047C308.36 111.207 309.192 117.875 310.802 125.026C311.242 127.14 311.573 128.725 311.795 129.777C311.907 130.304 311.992 130.706 312.051 130.977C312.08 131.108 312.106 131.229 312.128 131.323C312.131 131.335 312.135 131.355 312.141 131.38C312.151 131.423 312.165 131.48 312.182 131.541C312.189 131.569 312.202 131.617 312.219 131.676L312.22 131.677C312.231 131.715 312.271 131.853 312.335 132.023C312.361 132.094 312.441 132.305 312.572 132.561C312.635 132.683 312.773 132.941 312.992 133.238L312.997 133.246C313.131 133.428 313.728 134.242 314.853 134.782C314.856 134.784 314.86 134.785 314.863 134.787C318.615 136.647 322.155 138.134 325.46 139.188L325.141 139.52L311.997 153.231L310.454 154.841L310.62 157.064L312.034 175.986L312.17 177.801L313.442 179.105C321.272 187.129 332.403 190.759 345.972 190.759C350.277 190.759 354.271 190.237 357.343 188.643L357.395 188.616L357.447 188.587C358.845 187.82 360.421 186.516 362.011 185.062C363.694 183.525 365.714 181.517 368.055 179.068L368.075 179.047L368.095 179.025C372.723 174.07 376.484 168.943 379.325 163.634C382.132 158.47 384.063 153.805 384.756 149.788C385.426 146.033 385.905 140.202 386.238 132.496L388.224 106.853C388.225 106.844 388.225 106.836 388.226 106.827C388.896 99.1501 389.241 92.7831 389.241 87.7709C389.241 75.9979 385.068 66.5321 376.199 60.3585L376.185 60.3484L376.17 60.3384C367.513 54.4023 354.319 51.8753 337.569 51.8753ZM312.02 130.267C312.02 130.255 312.02 130.236 312.02 130.208V130.275L312.02 130.267ZM351.266 152.079C341.788 150.048 336.188 146.091 333.315 140.909L335.976 141.242L337.587 138.175C338.003 137.382 339.341 135.682 342.238 132.916C345.361 130.038 348.199 127.216 350.742 124.451C350.809 127.327 350.88 130.667 350.956 134.48C350.956 134.483 350.956 134.485 350.956 134.488L351.266 152.079ZM345.461 99.4529C345.156 99.983 344.858 100.497 344.566 100.994V83.0886C346.735 84.3202 349.103 85.9512 351.674 88.0301C351.444 88.5026 351.175 89.0384 350.865 89.6418C349.596 92.1057 347.801 95.369 345.461 99.4529ZM262.897 99.5099C262.702 99.8115 262.507 100.111 262.312 100.408L261.553 85.5177C264.833 86.7287 267.172 88.1425 268.778 89.6412C267.078 92.7387 265.12 96.0278 262.897 99.5099Z" stroke="#D14D72" stroke-width="10"/>
</g>
<defs>
<filter id="filter0_d_112_4" x="135.61" y="147.375" width="220.859" height="77" filterUnits="userSpaceOnUse" color-interpolation-filters="sRGB">
<feFlood flood-opacity="0" result="BackgroundImageFix"/>
<feColorMatrix in="SourceAlpha" type="matrix" values="0 0 0 0 0 0 0 0 0 0 0 0 0 0 0 0 0 0 127 0" result="hardAlpha"/>
<feOffset dy="4"/>
<feGaussianBlur stdDeviation="2"/>
<feComposite in2="hardAlpha" operator="out"/>
<feColorMatrix type="matrix" values="0 0 0 0 0 0 0 0 0 0 0 0 0 0 0 0 0 0 0.04 0"/>
<feBlend mode="normal" in2="BackgroundImageFix" result="effect1_dropShadow_112_4"/>
<feBlend mode="normal" in="SourceGraphic" in2="effect1_dropShadow_112_4" result="shape"/>
</filter>
<filter id="filter1_d_112_4" x="0.408249" y="0.985809" width="397.833" height="232.126" filterUnits="userSpaceOnUse" color-interpolation-filters="sRGB">
<feFlood flood-opacity="0" result="BackgroundImageFix"/>
<feColorMatrix in="SourceAlpha" type="matrix" values="0 0 0 0 0 0 0 0 0 0 0 0 0 0 0 0 0 0 127 0" result="hardAlpha"/>
<feOffset dy="4"/>
<feGaussianBlur stdDeviation="2"/>
<feComposite in2="hardAlpha" operator="out"/>
<feColorMatrix type="matrix" values="0 0 0 0 0 0 0 0 0 0 0 0 0 0 0 0 0 0 0.49 0"/>
<feBlend mode="normal" in2="BackgroundImageFix" result="effect1_dropShadow_112_4"/>
<feBlend mode="normal" in="SourceGraphic" in2="effect1_dropShadow_112_4" result="shape"/>
</filter>
</defs>
</svg>
