<svg width="623" height="626" viewBox="0 0 623 626" fill="none" xmlns="http://www.w3.org/2000/svg">
<g filter="url(#filter0_d_207_271)">
<ellipse cx="311.298" cy="309" rx="291.298" ry="293" fill="#FEF2F4"/>
</g>
<g style="mix-blend-mode:multiply" filter="url(#filter1_d_207_271)">
<path d="M293.128 197.068C282.786 213.143 275.183 225.162 270.32 233.127C265.533 241.021 262.329 246.689 260.705 250.132L283.543 247.294L284.498 279.438C263.013 294.029 238.697 318.91 211.548 354.081C213.762 330.425 215.702 308.166 217.371 287.305C219.116 266.445 219.994 253.828 220.005 249.456C220.011 247.306 219.866 243.938 219.57 239.351C208.214 231.488 197.546 224.807 187.567 219.306C177.589 213.735 168.721 209.522 160.965 206.67C144.838 200.608 128.857 197.592 113.022 197.622C96.1108 197.653 79.6896 201.375 63.7586 208.788C59.8972 215.748 52.4516 226.441 41.4221 240.869C50.1116 239.562 58.3384 238.901 66.1021 238.887C97.5417 238.828 126.428 245.224 152.761 258.076C160.197 265.875 165.866 273.175 169.769 279.977C173.824 287.208 177.107 295.91 179.618 306.084C182.204 316.758 183.977 329.728 184.936 344.993L181.751 421.93L221.014 395.748C235.294 372.857 253.843 332.858 272.426 310.532C278.132 303.641 283.952 297.036 289.888 290.717C295.823 284.327 301.141 278.977 305.841 274.668C310.618 270.287 315.24 266.443 319.707 263.138C324.114 253.31 326.332 242.842 326.361 231.732C326.384 222.701 324.947 213.565 322.05 204.324C318.285 203.615 308.644 201.196 293.128 197.068ZM361.946 248.437C347.159 259.503 337.488 268.588 332.935 275.692C328.227 282.868 325.86 291.689 325.833 302.153C325.814 309.392 326.447 317.49 327.73 326.447C328.638 332.18 329.242 336.407 329.542 339.13C334.38 341.2 341.292 343.337 350.28 345.542C361.993 334.339 371.01 325.506 377.33 319.043C383.65 312.581 387.466 308.345 388.778 306.335C388.733 323.537 388.007 337.049 386.598 346.872C405.674 341.747 418.789 338.64 425.94 337.552C425.184 332.536 424.811 328.164 424.821 324.437L425.479 292.827C425.5 284.728 424.71 278.315 423.108 273.587C421.506 268.788 419.094 265.065 415.872 262.42C412.651 259.774 409.235 257.845 405.625 256.633C401.938 255.565 394.332 254.074 382.807 252.161C370.052 249.963 363.099 248.721 361.946 248.437ZM474.252 248.333C472.091 251.778 466.925 257.916 458.754 266.747C452.201 274.07 447.573 280.171 444.87 285.05C442.013 290.073 440.574 296.741 440.552 305.055C440.535 311.793 441.592 319.209 443.723 327.304C444.94 332.319 445.549 334.791 445.549 334.719C454.379 338.43 461.83 340.602 467.901 341.236C469.059 339.37 471.679 336.785 475.762 333.48C485.775 325.649 493.404 318.359 498.648 311.612C498.873 313.762 499.157 323.043 499.499 339.456L500.004 367.193C480.638 365.294 467.893 359.441 461.768 349.633L443.509 365.794L445.411 388.046C454.538 395.984 467.903 399.937 485.506 399.904C491.118 399.893 495.309 399.276 498.079 398.053C500.388 396.973 504.74 393.596 511.135 387.922C517.222 382.392 522.079 376.756 525.707 371.015C529.488 365.131 531.768 360.289 532.547 356.488C533.403 352.473 534.073 345.913 534.558 336.81L537.404 306.486C538.349 297.525 538.829 290.213 538.844 284.551C538.876 272.223 533.865 263.094 523.81 257.164C513.602 251.234 497.083 248.29 474.252 248.333ZM476.963 270.368C484.338 271.931 492.706 276.216 502.066 283.222C501.291 285.589 497.624 291.617 491.065 301.305C484.583 310.85 479.841 316.45 476.839 318.104L476.963 270.368ZM361.418 274.348C374.326 276.689 382.887 280.687 387.1 286.341C384.167 291.149 380.617 296.316 376.452 301.843C372.287 307.298 368.085 312.216 363.846 316.596L361.418 274.348Z" fill="#D14D72"/>
</g>
<defs>
<filter id="filter0_d_207_271" x="0" y="0" width="622.595" height="626" filterUnits="userSpaceOnUse" color-interpolation-filters="sRGB">
<feFlood flood-opacity="0" result="BackgroundImageFix"/>
<feColorMatrix in="SourceAlpha" type="matrix" values="0 0 0 0 0 0 0 0 0 0 0 0 0 0 0 0 0 0 127 0" result="hardAlpha"/>
<feOffset dy="4"/>
<feGaussianBlur stdDeviation="10"/>
<feComposite in2="hardAlpha" operator="out"/>
<feColorMatrix type="matrix" values="0 0 0 0 0 0 0 0 0 0 0 0 0 0 0 0 0 0 0.25 0"/>
<feBlend mode="normal" in2="BackgroundImageFix" result="effect1_dropShadow_207_271"/>
<feBlend mode="normal" in="SourceGraphic" in2="effect1_dropShadow_207_271" result="shape"/>
</filter>
<filter id="filter1_d_207_271" x="37.4221" y="197.068" width="505.422" height="232.862" filterUnits="userSpaceOnUse" color-interpolation-filters="sRGB">
<feFlood flood-opacity="0" result="BackgroundImageFix"/>
<feColorMatrix in="SourceAlpha" type="matrix" values="0 0 0 0 0 0 0 0 0 0 0 0 0 0 0 0 0 0 127 0" result="hardAlpha"/>
<feOffset dy="4"/>
<feGaussianBlur stdDeviation="2"/>
<feComposite in2="hardAlpha" operator="out"/>
<feColorMatrix type="matrix" values="0 0 0 0 0 0 0 0 0 0 0 0 0 0 0 0 0 0 0.49 0"/>
<feBlend mode="normal" in2="BackgroundImageFix" result="effect1_dropShadow_207_271"/>
<feBlend mode="normal" in="SourceGraphic" in2="effect1_dropShadow_207_271" result="shape"/>
</filter>
</defs>
</svg>
